<svg width="231" height="234" viewBox="0 0 231 234" fill="none" xmlns="http://www.w3.org/2000/svg">
<path d="M185.135 175.62L186.672 174.746C187.697 174.163 188.669 173.884 189.588 173.908C190.506 173.96 191.336 174.365 192.078 175.123C192.553 175.609 192.893 176.186 193.098 176.853C193.289 177.534 193.274 178.262 193.053 179.037C192.818 179.827 192.308 180.606 191.522 181.375C190.607 182.271 189.724 182.827 188.873 183.044C188.036 183.275 187.265 183.245 186.561 182.955C185.857 182.693 185.261 182.226 184.773 181.556L185.786 180.146C186.538 181.229 187.352 181.818 188.227 181.912C189.103 182.007 189.999 181.606 190.914 180.711C191.643 179.998 192.054 179.26 192.147 178.497C192.254 177.749 191.986 177.046 191.343 176.388C190.909 175.945 190.388 175.699 189.781 175.65C189.187 175.615 188.414 175.868 187.46 176.409L185.902 177.305C184.792 177.943 183.727 178.285 182.708 178.33C181.69 178.376 180.768 177.977 179.942 177.134C179.089 176.261 178.711 175.246 178.809 174.087C178.92 172.943 179.533 171.825 180.648 170.734C181.649 169.755 182.716 169.159 183.85 168.945C184.984 168.731 186.064 168.92 187.09 169.511L186.375 170.882C185.321 170.206 184.37 169.948 183.519 170.108C182.669 170.297 181.9 170.727 181.214 171.398C180.828 171.776 180.505 172.218 180.245 172.724C179.985 173.231 179.873 173.76 179.909 174.312C179.946 174.864 180.202 175.383 180.677 175.869C181.153 176.355 181.737 176.594 182.43 176.588C183.123 176.581 184.025 176.259 185.135 175.62ZM193.028 183.343L193.834 183.352C193.923 184.216 194.078 184.974 194.297 185.627C194.502 186.294 194.833 187.047 195.29 187.887L193.661 189.481C193.202 187.468 192.991 185.422 193.028 183.343Z" fill="black"/>
<path d="M179.223 192.085C180.22 191.382 180.745 190.461 180.798 189.322C180.847 188.211 180.272 186.805 179.073 185.106L178.035 183.635C176.848 181.951 175.728 180.918 174.674 180.535C173.616 180.18 172.474 180.435 171.249 181.299C170.464 181.853 169.967 182.485 169.759 183.195C169.533 183.916 169.649 184.826 170.105 185.924L168.752 186.401C168.274 185.098 168.28 183.944 168.77 182.938C169.243 181.943 169.937 181.123 170.852 180.478C172.519 179.302 174.15 178.959 175.745 179.45C177.334 179.969 178.769 181.135 180.048 182.949L180.394 183.44C181.662 185.237 182.268 186.964 182.211 188.619C182.15 190.302 181.327 191.702 179.742 192.821C178.761 193.512 177.805 193.892 176.875 193.961C175.94 194.058 175.089 193.875 174.322 193.412C173.567 192.966 172.96 192.28 172.503 191.354L173.745 190.148C174.453 191.533 175.274 192.386 176.209 192.705C177.156 193.041 178.16 192.834 179.223 192.085ZM181.282 194.744L182.076 194.882C182.027 195.749 182.058 196.522 182.171 197.201C182.266 197.892 182.473 198.689 182.791 199.591L180.928 200.905C180.796 198.844 180.914 196.79 181.282 194.744Z" fill="black"/>
<path d="M165.712 202.682L165.96 203.358L162.214 204.732L161.429 202.591C161.151 203.694 160.712 204.558 160.111 205.183C159.497 205.834 158.768 206.315 157.923 206.624C156.271 207.23 154.792 207.091 153.488 206.206C152.19 205.339 151.142 203.817 150.343 201.639L150.137 201.076C149.366 198.973 149.26 197.116 149.819 195.504C150.36 193.9 151.532 192.768 153.335 192.107C154.799 191.57 156.2 191.642 157.536 192.323L155.687 187.282C155.446 186.624 155.277 186.25 155.179 186.158C155.075 186.047 154.869 186.037 154.562 186.129L152.397 186.763L152.139 186.058L158.73 183.642L158.988 184.346L157.491 185.055C157.204 185.202 157.053 185.343 157.038 185.476C157.023 185.61 157.136 186.005 157.377 186.662L162.975 201.928C163.216 202.585 163.385 202.96 163.483 203.052C163.588 203.163 163.793 203.172 164.101 203.081L165.712 202.682ZM157.726 205.738C158.383 205.497 159.009 205.055 159.604 204.41C160.179 203.773 160.599 202.767 160.862 201.393L158.063 193.76C156.657 192.656 155.184 192.387 153.644 192.952C152.311 193.44 151.513 194.255 151.249 195.395C150.986 196.536 151.15 197.914 151.742 199.528L152.569 201.782C153.223 203.566 153.983 204.767 154.849 205.387C155.715 206.007 156.674 206.124 157.726 205.738Z" fill="black"/>
<path d="M148.902 209.656L149.059 210.389L145.158 211.226L144.667 208.939C144.121 210.017 143.548 210.825 142.947 211.363C142.351 211.921 141.72 212.271 141.055 212.414C139.706 212.703 138.521 212.231 137.499 210.998L138.723 209.692C139.174 210.271 139.615 210.657 140.045 210.851C140.456 211.049 140.915 211.094 141.424 210.984C141.971 210.867 142.462 210.578 142.894 210.117C143.332 209.675 143.797 208.89 144.291 207.761L142.472 199.284C142.325 198.6 142.208 198.195 142.12 198.071C142.036 197.966 141.836 197.938 141.519 197.985L139.287 198.311L139.13 197.577L145.994 196.105L146.151 196.838L144.569 197.331C144.265 197.437 144.096 197.555 144.062 197.685C144.029 197.815 144.085 198.222 144.232 198.906L146.303 208.557C146.45 209.241 146.565 209.636 146.649 209.74C146.737 209.865 146.94 209.903 147.257 209.856L148.902 209.656Z" fill="black"/>
<path d="M122.708 203.757C123.011 202.403 123.65 201.435 124.627 200.853C125.583 200.272 126.64 199.957 127.799 199.908C129.877 199.82 131.464 200.413 132.559 201.687C133.635 202.983 134.22 204.74 134.314 206.958L134.34 207.557C134.433 209.755 134.008 211.535 133.065 212.896C132.103 214.278 130.653 215.01 128.715 215.093C127.695 215.136 126.747 214.966 125.87 214.583C124.993 214.2 124.277 213.6 123.722 212.782C123.167 211.965 122.862 210.907 122.806 209.608C122.783 209.049 122.817 208.437 122.909 207.772L132.29 207.374L132.251 206.445C132.163 204.387 131.77 202.912 131.072 202.021C130.354 201.151 129.226 200.748 127.688 200.813C126.709 200.855 125.919 201.119 125.319 201.605C124.719 202.091 124.314 202.918 124.103 204.088L122.708 203.757ZM128.676 214.193C129.995 214.137 130.955 213.646 131.556 212.72C132.159 211.814 132.416 210.331 132.328 208.273L124.715 208.597C124.705 208.837 124.704 209.047 124.712 209.227C124.701 209.428 124.698 209.608 124.705 209.768C124.775 211.407 125.174 212.561 125.903 213.23C126.633 213.92 127.557 214.241 128.676 214.193Z" fill="black"/>
<path d="M105.463 201.481L105.643 200.753L111.876 202.291L111.697 203.019L110.059 202.769C109.738 202.732 109.535 202.764 109.448 202.866C109.361 202.968 109.233 203.359 109.066 204.038L107.291 211.233C106.922 212.728 106.909 213.827 107.251 214.529C107.573 215.227 108.181 215.685 109.074 215.906C109.792 216.083 110.595 216.085 111.482 215.913C112.35 215.735 113.319 215.233 114.388 214.405L116.493 205.871C116.661 205.191 116.73 204.786 116.7 204.655C116.671 204.524 116.506 204.401 116.204 204.285L114.638 203.745L114.818 203.016L121.051 204.554L120.872 205.282L119.234 205.033C118.913 204.995 118.71 205.027 118.623 205.129C118.536 205.231 118.408 205.622 118.241 206.302L115.877 215.884C115.709 216.564 115.64 216.969 115.67 217.1C115.694 217.251 115.86 217.374 116.166 217.47L117.732 218.011L117.552 218.739L113.678 217.783L114.239 215.511C113.237 216.232 112.261 216.682 111.311 216.859C110.336 217.051 109.422 217.042 108.567 216.831C107.538 216.578 106.753 216.126 106.213 215.478C105.668 214.849 105.36 214.052 105.289 213.087C104.253 213.862 103.236 214.352 102.237 214.559C101.234 214.786 100.286 214.788 99.3924 214.568C98.0138 214.228 97.073 213.533 96.5701 212.481C96.0429 211.445 95.9734 210.14 96.3614 208.568L98.1432 201.344C98.3109 200.664 98.38 200.259 98.3504 200.128C98.3209 199.997 98.1556 199.874 97.8545 199.759L96.2885 199.218L96.4681 198.49L102.701 200.027L102.522 200.756L100.884 200.506C100.563 200.468 100.36 200.5 100.273 200.603C100.186 200.705 100.059 201.096 99.8909 201.775L98.1162 208.97C97.7473 210.465 97.7338 211.563 98.0755 212.266C98.3979 212.963 99.0056 213.422 99.8989 213.643C100.617 213.82 101.432 213.815 102.344 213.628C103.236 213.436 104.228 212.918 105.322 212.076C105.355 211.692 105.426 211.277 105.536 210.831L107.318 203.607C107.486 202.928 107.555 202.523 107.525 202.392C107.496 202.261 107.331 202.138 107.029 202.022L105.463 201.481Z" fill="black"/>
<path d="M85.973 214.986C86.3312 215.112 86.5895 215.342 86.7479 215.674C86.9062 216.005 86.9187 216.36 86.7852 216.737C86.6517 217.114 86.4224 217.372 86.0972 217.512C85.7654 217.67 85.4203 217.686 85.0621 217.559C84.685 217.426 84.4173 217.193 84.259 216.861C84.094 216.548 84.0782 216.203 84.2116 215.826C84.3451 215.449 84.5778 215.181 84.9096 215.023C85.2415 214.865 85.5959 214.852 85.973 214.986ZM90.5223 211.663L90.2721 212.37L86.3976 210.999L90.4816 199.46C90.7151 198.8 90.8237 198.404 90.8071 198.271C90.7906 198.138 90.6382 197.999 90.3499 197.854L88.8445 197.162L89.0947 196.455L95.1468 198.597L94.8966 199.304L93.2911 198.895C92.9761 198.826 92.7703 198.838 92.6737 198.931C92.5771 199.024 92.412 199.401 92.1784 200.061L88.8852 209.365C88.6516 210.025 88.5431 210.422 88.5596 210.555C88.5695 210.707 88.7219 210.846 89.0169 210.971L90.5223 211.663Z" fill="black"/>
<path d="M73.8658 190.622L74.2472 189.976L77.6826 192.005L76.4924 194.02C77.6491 193.635 78.7218 193.49 79.7103 193.586C80.6816 193.672 81.546 193.939 82.3037 194.387C83.5263 195.109 84.241 196.042 84.4478 197.186C84.6271 198.338 84.3048 199.611 83.4809 201.005L79.6967 207.411C79.3407 208.014 79.158 208.382 79.1486 208.516C79.1291 208.667 79.252 208.833 79.5173 209.013L80.8616 209.981L80.4802 210.627L76.9415 208.536L81.9158 200.116C82.6991 198.79 83.0367 197.747 82.9286 196.986C82.8033 196.215 82.3446 195.595 81.5525 195.128C80.9153 194.751 80.1557 194.523 79.2737 194.443C78.3642 194.371 77.2834 194.568 76.0312 195.037L71.5604 202.605C71.2043 203.207 71.0216 203.576 71.0123 203.71C70.9927 203.861 71.1156 204.026 71.381 204.206L73.2419 205.48L72.8604 206.125L68.8052 203.73L75.0307 193.191C75.3867 192.589 75.5694 192.22 75.5788 192.086C75.5882 191.953 75.4653 191.787 75.2101 191.59L73.8658 190.622Z" fill="black"/>
<path d="M60.6021 182.348L61.1458 181.831L65.5685 186.485L65.0249 187.001L63.7795 185.909C63.53 185.704 63.3411 185.622 63.2128 185.661C63.0845 185.7 62.7666 185.961 62.2592 186.443L56.888 191.548C55.7717 192.609 55.1684 193.527 55.0779 194.303C54.9736 195.064 55.2384 195.778 55.8722 196.445C56.382 196.981 57.057 197.416 57.8974 197.748C58.7239 198.067 59.8107 198.165 61.1578 198.044L67.5293 191.988C68.0367 191.506 68.3132 191.202 68.3589 191.076C68.4045 190.949 68.3316 190.757 68.1402 190.497L67.1122 189.198L67.6559 188.681L72.0786 193.335L71.5349 193.851L70.2895 192.759C70.0401 192.554 69.8512 192.472 69.7229 192.511C69.5946 192.55 69.2767 192.811 68.7693 193.293L61.6149 200.092C61.1075 200.575 60.831 200.879 60.7853 201.005C60.7252 201.145 60.7981 201.338 61.0041 201.583L62.032 202.883L61.4884 203.399L58.7397 200.507L60.4358 198.895C59.2033 198.963 58.139 198.816 57.2428 198.453C56.3184 198.09 55.5531 197.59 54.9468 196.952C54.2166 196.183 53.7985 195.381 53.6925 194.543C53.5719 193.72 53.7418 192.882 54.202 192.031C52.9122 192.126 51.791 191.991 50.8383 191.627C49.8711 191.277 49.0706 190.769 48.4368 190.102C47.4585 189.073 47.0407 187.98 47.1833 186.823C47.2976 185.666 47.9419 184.53 49.1162 183.414L54.5092 178.288C55.0166 177.806 55.2931 177.502 55.3387 177.376C55.3844 177.25 55.3115 177.057 55.12 176.797L54.0921 175.498L54.6357 174.981L59.0584 179.635L58.5148 180.151L57.2694 179.059C57.0199 178.854 56.8311 178.772 56.7027 178.811C56.5744 178.85 56.2566 179.111 55.7492 179.593L50.378 184.698C49.2617 185.759 48.6583 186.677 48.5678 187.453C48.4636 188.214 48.7283 188.928 49.3621 189.595C49.8719 190.131 50.5611 190.566 51.4297 190.9C52.2846 191.218 53.3996 191.317 54.7749 191.197C55.009 190.892 55.2928 190.58 55.6263 190.264L61.0192 185.138C61.5266 184.656 61.8032 184.352 61.8488 184.226C61.8944 184.099 61.8215 183.907 61.6301 183.647L60.6021 182.348Z" fill="black"/>
<path d="M40.2989 173.922L39.4304 174.456L35.2774 167.713L36.1459 167.178L40.2989 173.922Z" fill="black"/>
<path d="M220.85 121.762L221.593 121.866L220.685 128.372L219.942 128.269L220.021 126.614C220.046 126.294 219.993 126.095 219.862 126.016C219.752 125.94 219.35 125.854 218.657 125.757L206.802 124.102C205.752 123.956 204.762 123.666 203.833 123.234C202.904 122.801 202.184 122.176 201.672 121.357C201.177 120.561 201.02 119.519 201.199 118.232C201.291 117.578 201.501 116.941 201.83 116.32C202.159 115.7 202.652 115.203 203.31 114.831C203.987 114.461 204.868 114.301 205.951 114.351L206.19 115.899C205.154 115.795 204.348 115.854 203.772 116.077C203.216 116.302 202.808 116.618 202.549 117.027C202.31 117.437 202.16 117.861 202.099 118.297C202.011 118.93 202.093 119.497 202.346 119.997C202.597 120.517 203.1 120.961 203.857 121.329C204.613 121.697 205.685 121.978 207.071 122.171L218.926 123.826C219.62 123.923 220.03 123.949 220.157 123.907C220.304 123.867 220.409 123.689 220.473 123.375L220.85 121.762Z" fill="black"/>
<path d="M197.985 137.8C198.19 137.151 198.54 136.675 199.035 136.37C199.549 136.071 200.155 135.979 200.852 136.095C200.275 135.136 199.934 134.189 199.831 133.255C199.747 132.326 199.832 131.462 200.085 130.661C200.507 129.326 201.19 128.461 202.132 128.067C203.088 127.698 204.071 127.674 205.082 127.993C206.207 128.349 206.967 128.998 207.361 129.941C207.755 130.884 207.669 132.251 207.102 134.044L205.953 137.676L208.27 138.409C209.796 138.891 210.928 138.924 211.668 138.508C212.427 138.098 212.967 137.387 213.286 136.377C213.491 135.728 213.558 135.12 213.486 134.552C213.433 133.99 213.147 133.501 212.628 133.085C212.128 132.675 211.317 132.356 210.194 132.127L211.004 130.558C212.375 130.866 213.363 131.556 213.968 132.628C214.592 133.706 214.645 135.065 214.126 136.705C213.71 138.021 213.162 138.959 212.481 139.52C211.813 140.106 211.065 140.415 210.237 140.447C209.422 140.504 208.585 140.397 207.727 140.125L201.406 138.126C200.433 137.819 199.784 137.75 199.458 137.919C199.125 138.108 198.911 138.355 198.814 138.66C198.766 138.812 198.747 139.006 198.757 139.239C198.767 139.473 198.834 139.725 198.958 139.995L198.109 140.293C197.946 139.948 197.845 139.57 197.807 139.159C197.769 138.749 197.828 138.296 197.985 137.8ZM200.933 131.464C200.758 132.017 200.711 132.694 200.793 133.496C200.869 134.317 201.302 135.304 202.092 136.455L205.095 137.405L206.171 134.001C206.539 132.838 206.598 131.923 206.347 131.256C206.115 130.596 205.551 130.124 204.655 129.84C203.74 129.551 202.958 129.535 202.311 129.791C201.663 130.048 201.204 130.605 200.933 131.464Z" fill="black"/>
<path d="M217.857 150.349L218.523 150.694L216.632 154.343L202.516 147.025L205.322 155.171C205.562 155.881 205.722 156.268 205.802 156.332C205.899 156.405 206.035 156.295 206.209 156.002L207.019 154.766L207.684 155.111L205.117 160.065L204.451 159.72L204.994 158.346C205.059 158.177 205.101 158.03 205.121 157.905C205.141 157.78 205.117 157.61 205.048 157.394C204.98 157.178 204.869 156.828 204.715 156.343L203.055 151.461L194.991 152.35C194.561 152.397 194.247 152.438 194.05 152.47C193.853 152.503 193.709 152.564 193.618 152.652C193.527 152.74 193.427 152.868 193.317 153.037L192.508 154.273L191.842 153.928L193.54 150.652L202.476 149.775L201.317 146.404L199.027 145.217C198.405 144.895 198.027 144.733 197.893 144.731C197.759 144.729 197.6 144.861 197.418 145.126L196.525 146.522L195.859 146.177L198.814 140.477L199.48 140.822L198.854 142.356C198.742 142.659 198.725 142.864 198.804 142.973C198.883 143.081 199.233 143.297 199.855 143.619L215.356 151.654C215.978 151.976 216.355 152.138 216.49 152.14C216.641 152.151 216.8 152.019 216.965 151.744L217.857 150.349Z" fill="black"/>
<path d="M191.29 169.484L190.812 169.123C189.041 167.784 187.952 166.272 187.546 164.587C187.144 162.929 187.54 161.311 188.734 159.731C189.94 158.135 191.395 157.305 193.099 157.239C194.819 157.185 196.565 157.827 198.336 159.166L198.815 159.528C200.57 160.854 201.648 162.346 202.05 164.003C202.468 165.673 202.074 167.306 200.869 168.901C199.663 170.497 198.2 171.321 196.48 171.375C194.775 171.441 193.046 170.811 191.29 169.484ZM192.999 168.218C194.658 169.473 196.056 170.078 197.192 170.034C198.345 170.002 199.331 169.444 200.151 168.359C200.958 167.289 201.226 166.188 200.955 165.055C200.687 163.95 199.723 162.771 198.063 161.517L196.627 160.432C194.984 159.19 193.578 158.579 192.41 158.598C191.246 158.646 190.26 159.204 189.452 160.273C188.632 161.359 188.364 162.46 188.648 163.577C188.948 164.706 189.919 165.891 191.563 167.133L192.999 168.218Z" fill="black"/>
<path d="M19.7267 161.097L19.0083 161.312L16.6659 153.496C16.1377 151.733 16.1995 150.232 16.8512 148.993C17.478 147.74 18.5673 146.881 20.1191 146.416L21.0674 146.132C22.6192 145.667 24.0109 145.783 25.2425 146.478C26.4683 147.155 27.3453 148.375 27.8735 150.137L28.993 153.873L35.0566 152.056C35.7271 151.855 36.1208 151.706 36.2377 151.608C36.3355 151.516 36.348 151.314 36.2753 151.002L35.7731 148.803L36.4915 148.588L38.5497 155.456L37.8313 155.672L37.2139 154.134C37.0838 153.839 36.9526 153.68 36.8204 153.657C36.6882 153.634 36.2869 153.723 35.6164 153.924L20.6154 158.419C19.9449 158.62 19.5608 158.767 19.463 158.858C19.3461 158.956 19.324 159.161 19.3967 159.473L19.7267 161.097ZM17.528 153.237L18.6475 156.973L28.1309 154.131L27.0114 150.395C26.6554 149.208 26.0723 148.412 25.2621 148.007C24.4462 147.583 23.339 147.581 21.9404 148L20.4173 148.457C19.0379 148.87 18.124 149.478 17.6755 150.281C17.2212 151.064 17.1721 152.049 17.528 153.237Z" fill="black"/>
<path d="M19.4355 142.738L18.6939 142.851L18.0969 138.906L20.4106 138.555C19.3675 137.945 18.5958 137.323 18.0956 136.691C17.5756 136.062 17.2647 135.411 17.1629 134.738C16.9565 133.374 17.4999 132.22 18.7932 131.275L20.0216 132.576C19.4169 132.991 19.0046 133.408 18.7846 133.825C18.5616 134.223 18.489 134.679 18.5668 135.193C18.6506 135.747 18.9094 136.254 19.3431 136.714C19.7571 137.178 20.5123 137.69 21.6088 138.253L30.1812 136.956C30.8733 136.851 31.2841 136.758 31.4136 136.678C31.5232 136.601 31.564 136.402 31.5359 136.083L31.3476 133.836L32.0891 133.724L33.1395 140.665L32.3979 140.777L32.0027 139.168C31.9153 138.857 31.8078 138.682 31.6801 138.64C31.5525 138.599 31.1426 138.631 30.4505 138.735L20.6916 140.212C19.9995 140.317 19.5986 140.408 19.4889 140.485C19.3595 140.565 19.3088 140.765 19.3369 141.085L19.4355 142.738Z" fill="black"/>
<path d="M33.9722 116.723C35.0449 117.048 35.7934 117.556 36.2175 118.246C36.6417 118.936 36.8445 119.681 36.8259 120.481C36.8042 121.42 36.5364 122.184 36.0227 122.773C35.5094 123.341 34.8528 123.616 34.053 123.597C33.1733 123.577 32.4499 123.28 31.8831 122.707C31.3362 122.134 30.8211 121.482 30.338 120.75C30.3891 121.132 30.4103 121.512 30.4015 121.892C30.3534 123.972 29.6574 125.516 28.3137 126.525C26.9504 127.514 25.1591 127.982 22.9397 127.931L22.3399 127.917C20.1404 127.866 18.3925 127.325 17.096 126.295C15.78 125.244 15.1444 123.749 15.1894 121.81C15.213 120.79 15.4447 119.855 15.8845 119.005C16.3243 118.155 16.9701 117.48 17.8219 116.98C18.6737 116.479 19.7495 116.244 21.0491 116.274C21.609 116.287 22.2174 116.361 22.8745 116.496L22.657 125.884L23.5868 125.905C25.6462 125.953 27.1435 125.658 28.0785 125.019C28.994 124.36 29.4696 123.261 29.5052 121.721C29.5279 120.742 29.3165 119.936 28.871 119.306C28.4255 118.676 27.6259 118.217 26.4722 117.93L26.8941 116.559C27.3512 116.69 27.7771 116.87 28.1719 117.099C28.5467 117.328 28.8997 117.636 29.2308 118.024C29.7177 118.595 30.1639 119.196 30.5694 119.825C30.9954 120.435 31.4535 120.956 31.9436 121.388C32.4542 121.8 33.1094 122.015 33.9092 122.033C34.489 122.047 34.9819 121.928 35.3878 121.678C35.7942 121.407 36.0046 120.962 36.0189 120.342C36.031 119.822 35.8515 119.368 35.4804 118.979C35.1097 118.57 34.4668 118.255 33.5517 118.034L33.9722 116.723ZM16.0891 121.831C16.0585 123.15 16.4857 124.14 17.3707 124.801C18.2356 125.461 19.6978 125.815 21.7573 125.863L21.9337 118.245L21.8137 118.242C21.6343 118.218 21.4545 118.204 21.2746 118.2C21.0951 118.176 20.9254 118.162 20.7654 118.158C19.1259 118.12 17.9481 118.443 17.232 119.126C16.496 119.81 16.1151 120.711 16.0891 121.831Z" fill="black"/>
<path d="M30.9791 99.4681L31.6842 99.6137L30.8768 103.521L28.644 103.06C29.4195 103.853 29.9222 104.682 30.152 105.546C30.3819 106.411 30.4057 107.284 30.2236 108.165C29.8675 109.889 28.9696 111.071 27.5299 111.713C26.0902 112.355 24.2442 112.444 21.9918 111.978L21.4042 111.857C19.2105 111.404 17.5746 110.524 16.4964 109.219C15.4222 107.895 15.0794 106.292 15.4679 104.412C15.7835 102.884 16.5832 101.732 17.8668 100.956L11.4327 99.6262C10.7472 99.4846 10.3396 99.431 10.21 99.4655C10.0607 99.4959 9.94393 99.6658 9.85959 99.9751L9.37883 101.561L8.64434 101.409L9.47598 97.3839L28.8958 101.396C29.5813 101.538 29.9889 101.592 30.1185 101.557C30.2482 101.523 30.365 101.353 30.4689 101.048L30.9791 99.4681ZM23.2859 110.163C25.1466 110.547 26.5686 110.535 27.5518 110.125C28.539 109.696 29.144 108.943 29.3665 107.865C29.5082 107.18 29.46 106.425 29.2221 105.599C28.9882 104.755 28.3565 103.858 27.327 102.91L19.3652 101.265C17.6864 101.878 16.6811 102.988 16.3493 104.594C16.066 105.965 16.3374 107.073 17.1636 107.917C17.9938 108.742 19.2512 109.329 20.9356 109.677L23.2859 110.163Z" fill="black"/>
<path d="M10.3463 91.0892L9.64812 90.8152L11.1495 86.9892L25.9506 92.7976L22.3118 84.9887C21.9991 84.3073 21.7999 83.9391 21.7141 83.8839C21.6097 83.8215 21.4861 83.9449 21.3432 84.2541L20.6666 85.5677L19.9684 85.2937L22.0069 80.0993L22.705 80.3733L22.3077 81.7965C22.2605 81.9714 22.2337 82.122 22.227 82.2483C22.2204 82.3746 22.2624 82.5415 22.3529 82.7489C22.4434 82.9562 22.5904 83.2933 22.794 83.7599L24.9528 88.4421L32.8802 86.7189C33.303 86.627 33.6107 86.5545 33.8035 86.5012C33.9963 86.4479 34.1332 86.3728 34.2143 86.2757C34.2954 86.1786 34.3817 86.0406 34.4734 85.8617L35.1501 84.5481L35.8482 84.8221L34.5002 88.2571L25.7043 90.0583L27.2073 93.2908L29.609 94.2333C30.2606 94.489 30.6533 94.6109 30.7869 94.5989C30.9205 94.5868 31.0644 94.4392 31.2185 94.1559L31.9609 92.6748L32.6591 92.9487L30.3138 98.925L29.6156 98.651L30.0788 97.0603C30.1584 96.7478 30.1534 96.5417 30.0636 96.442C29.9738 96.3423 29.6031 96.1646 28.9515 95.9089L12.6982 89.5306C12.0466 89.2749 11.6539 89.1531 11.5203 89.1651C11.3681 89.1698 11.2242 89.3174 11.0887 89.608L10.3463 91.0892Z" fill="black"/>
<path d="M34.7294 69.313L35.2426 69.6239C37.1414 70.7741 38.3789 72.1667 38.9552 73.8018C39.5246 75.4094 39.2965 77.06 38.2706 78.7536C37.2345 80.4642 35.8721 81.4395 34.1835 81.6793C32.4778 81.9088 30.6756 81.4485 28.7768 80.2983L28.2636 79.9875C26.3819 78.8477 25.1563 77.474 24.5868 75.8663C24.0002 74.2483 24.225 72.584 25.2612 70.8734C26.2974 69.1627 27.6683 68.1926 29.374 67.9631C31.0625 67.7233 32.8477 68.1732 34.7294 69.313ZM33.1593 70.747C31.3802 69.6694 29.9278 69.2105 28.8021 69.3705C27.6593 69.52 26.7356 70.1764 26.031 71.3396C25.3367 72.4858 25.1828 73.6085 25.5692 74.7077C25.9489 75.7794 27.0282 76.8541 28.8073 77.9318L30.3469 78.8643C32.1088 79.9316 33.5698 80.3956 34.7297 80.2565C35.8829 80.0898 36.8066 79.4334 37.5009 78.2873C38.2055 77.124 38.3594 76.0014 37.9626 74.9192C37.5487 73.8268 36.4608 72.7469 34.6989 71.6796L33.1593 70.747Z" fill="black"/>
<path d="M40.1723 62.5642L38.7322 63.5901C37.772 64.274 36.8336 64.6507 35.9169 64.72C34.9976 64.7612 34.1307 64.4426 33.3162 63.7642C32.7937 63.3289 32.3967 62.79 32.1251 62.1473C31.8663 61.4893 31.8073 60.7633 31.9479 59.9694C32.1014 59.1602 32.5301 58.333 33.2342 57.4878C34.0534 56.5043 34.8752 55.8614 35.6997 55.559C36.5088 55.2439 37.2783 55.195 38.0082 55.4125C38.7355 55.6019 39.3757 56.005 39.929 56.622L39.0651 58.128C38.207 57.1269 37.3375 56.6239 36.4566 56.619C35.5757 56.6141 34.7257 57.1034 33.9065 58.0869C33.2537 58.8706 32.9197 59.6466 32.9045 60.4148C32.8739 61.1702 33.2121 61.8423 33.919 62.4312C34.3954 62.828 34.9383 63.0199 35.5477 63.007C36.1418 62.9812 36.8856 62.6507 37.7792 62.0154L39.2386 60.9665C40.2781 60.2185 41.3023 59.7702 42.3112 59.6214C43.3201 59.4727 44.2778 59.7759 45.1845 60.5311C46.1219 61.3119 46.601 62.2836 46.6218 63.4462C46.6271 64.596 46.1306 65.7702 45.1322 66.9688C44.2362 68.0445 43.2351 68.7464 42.1289 69.0744C41.0228 69.4024 39.9293 69.3246 38.8486 68.8408L39.4206 67.4041C40.5372 67.9698 41.5103 68.1296 42.3399 67.8836C43.167 67.6094 43.8877 67.1035 44.5021 66.3659C44.8477 65.951 45.1242 65.4785 45.3315 64.9483C45.5388 64.4182 45.5963 63.8805 45.504 63.335C45.4117 62.7896 45.1043 62.2993 44.5818 61.8641C44.0593 61.4289 43.4536 61.2498 42.7648 61.3268C42.076 61.4037 41.2118 61.8162 40.1723 62.5642ZM31.536 55.6829L30.7332 55.756C30.5563 54.9059 30.3257 54.1672 30.0413 53.5399C29.7697 52.8972 29.3637 52.1815 28.8232 51.393L30.2824 49.6411C30.9435 51.5973 31.3614 53.6113 31.536 55.6829Z" fill="black"/>
<path d="M44.4033 45.4899C43.4831 46.291 43.0546 47.2608 43.1176 48.3992C43.1826 49.5094 43.8979 50.8489 45.2637 52.4177L46.4457 53.7752C47.7983 55.3289 49.0181 56.2426 50.1049 56.5162C51.1936 56.7616 52.3036 56.3918 53.4349 55.4069C54.159 54.7765 54.5887 54.0975 54.7241 53.3697C54.8746 52.6288 54.667 51.7355 54.1014 50.6899L55.3983 50.0779C56.0067 51.3249 56.1186 52.4738 55.7341 53.5246C55.3646 54.5622 54.7575 55.4488 53.9128 56.1842C52.3742 57.5237 50.7869 58.0306 49.1508 57.7048C47.5167 57.3508 45.9708 56.3366 44.5131 54.6622L44.1191 54.2097C42.6745 52.5504 41.896 50.8947 41.7834 49.2425C41.6728 47.5621 42.3491 46.085 43.8123 44.8111C44.7174 44.0232 45.6292 43.5475 46.5477 43.3843C47.4682 43.1928 48.3334 43.288 49.1434 43.6701C49.9402 44.0371 50.6132 44.6578 51.1623 45.5321L50.0498 46.8586C49.2046 45.5526 48.3005 44.7884 47.3378 44.5659C46.3619 44.3283 45.3837 44.6363 44.4033 45.4899ZM42.0839 43.0542L41.2797 42.9986C41.2404 42.1312 41.1304 41.3652 40.9495 40.7006C40.7838 40.0228 40.4969 39.2517 40.0889 38.3871L41.8085 36.8899C42.1496 38.9265 42.2414 40.9813 42.0839 43.0542Z" fill="black"/>
<path d="M60.1061 37.4983L59.6101 36.607L66.5308 32.756L67.0268 33.6473L60.1061 37.4983Z" fill="black"/>
<path d="M73.9874 17.3713L73.805 16.6438L81.7201 14.6594C83.5048 14.212 85.0014 14.3419 86.2097 15.0493C87.4325 15.7324 88.2409 16.8597 88.6349 18.431L88.8756 19.3913C89.2696 20.9627 89.091 22.3477 88.34 23.5463C87.6083 24.7401 86.3501 25.5607 84.5654 26.0082L80.7825 26.9566L82.3218 33.0966C82.4921 33.7756 82.6233 34.1757 82.7156 34.2969C82.8029 34.3987 83.0043 34.4204 83.3195 34.3619L85.5384 33.9603L85.7208 34.6877L78.7661 36.4314L78.5837 35.7039L80.1477 35.1572C80.4483 35.0406 80.6132 34.9167 80.6422 34.7858C80.6712 34.6548 80.6006 34.2498 80.4304 33.5708L76.622 18.3809C76.4518 17.7019 76.323 17.3115 76.2356 17.2097C76.1434 17.0885 75.9396 17.0571 75.6244 17.1156L73.9874 17.3713ZM81.9389 15.5324L78.156 16.4808L80.5636 26.0836L84.3465 25.1352C85.5493 24.8336 86.3711 24.2874 86.812 23.4964C87.2723 22.7006 87.3249 21.5946 86.9698 20.1784L86.5832 18.6362C86.233 17.2394 85.6672 16.2987 84.8859 15.8142C84.124 15.3248 83.1417 15.2308 81.9389 15.5324Z" fill="black"/>
<path d="M92.5869 17.8488L92.5089 17.1029L96.4773 16.6883L96.7205 19.0156C97.3787 18.0017 98.0351 17.2595 98.6898 16.7889C99.3423 16.2985 100.007 16.0179 100.683 15.9473C102.056 15.8039 103.184 16.3999 104.067 17.7353L102.711 18.9025C102.324 18.2794 101.927 17.8483 101.52 17.6093C101.133 17.3682 100.681 17.2747 100.164 17.3287C99.6069 17.3869 99.0885 17.622 98.6087 18.0341C98.1269 18.4263 97.5798 19.1571 96.9676 20.2265L97.8685 28.8496C97.9412 29.5458 98.0147 29.9604 98.0889 30.0934C98.1611 30.2065 98.3573 30.2564 98.6777 30.243L100.931 30.1584L101.009 30.9044L94.027 31.6338L93.9491 30.8879L95.5746 30.5672C95.8887 30.4942 96.0693 30.3949 96.1165 30.2693C96.1637 30.1437 96.151 29.7328 96.0782 29.0366L95.0527 19.22C94.98 18.5238 94.9075 18.1191 94.8354 18.006C94.7612 17.873 94.5639 17.8132 94.2435 17.8266L92.5869 17.8488Z" fill="black"/>
<path d="M116.226 25.6616L116.975 25.6963L116.785 29.8019L106.086 29.3061L106.121 28.5569L115.052 15.9969L110.197 15.7719C109.738 15.7506 109.407 15.7553 109.206 15.786C109.005 15.7967 108.862 15.8602 108.776 15.9763C108.712 16.0734 108.634 16.24 108.543 16.4761L107.621 18.866L106.872 18.8312L107.062 14.7256L117.161 15.1937L117.127 15.9428L108.196 28.5029L113.65 28.7556C114.129 28.7779 114.459 28.7831 114.64 28.7715C114.842 28.7408 114.975 28.6669 115.041 28.5498C115.126 28.4336 115.214 28.2675 115.304 28.0515L116.226 25.6616Z" fill="black"/>
<path d="M125.177 31.4837C124.175 33.1327 123.189 34.2739 122.217 34.9073C121.246 35.5408 120.036 35.705 118.588 35.4L118.959 33.6386C119.742 33.8035 120.428 33.8457 121.017 33.7654C121.622 33.7088 122.183 33.4694 122.701 33.0471C123.219 32.6248 123.746 31.9692 124.28 31.0803L124.987 29.9108L124.576 29.8242L122.756 16.626C122.687 16.0801 122.614 15.7479 122.537 15.6294C122.46 15.511 122.269 15.3992 121.964 15.2941L120.563 14.815L120.717 14.0811L126.618 15.3238L126.463 16.0577L124.988 15.9309C124.666 15.9041 124.485 15.9375 124.445 16.0313C124.405 16.125 124.419 16.4448 124.488 16.9908L126.016 28.2267L131.916 18.5549C132.199 18.0832 132.331 17.7943 132.313 17.6882C132.314 17.5862 132.162 17.4827 131.857 17.3776L130.456 16.8985L130.61 16.1646L135.806 17.2589L135.652 17.9928L134.176 17.866C133.878 17.8237 133.668 17.851 133.546 17.9478C133.447 18.0292 133.246 18.3037 132.943 18.7713L125.177 31.4837Z" fill="black"/>
<path d="M142.39 30.869C141.723 31.847 141.025 32.5088 140.296 32.8542C139.593 33.187 138.777 33.1969 137.849 32.8838C136.996 32.5964 136.368 32.1736 135.965 31.6157C135.587 31.0452 135.378 30.4152 135.336 29.7257C135.313 29.0426 135.41 28.3788 135.627 27.7344L138.301 19.8029C138.524 19.1396 138.627 18.7415 138.608 18.6086C138.615 18.4632 138.461 18.3267 138.145 18.1991L136.629 17.5299L136.869 16.8192L139.058 17.5571L140.419 13.5203L142.239 13.7541L140.763 18.1321L145.454 19.7132L145.167 20.5661L140.476 18.9849L137.333 28.3094C136.937 29.4845 136.833 30.3569 137.02 30.9267C137.215 31.4776 137.615 31.8553 138.221 32.0597C138.828 32.2642 139.356 32.1995 139.806 31.8659C140.257 31.5322 140.711 30.936 141.169 30.0774L142.39 30.869Z" fill="black"/>
<path d="M156.307 39.2183L155.935 39.8696L152.47 37.8911L153.63 35.859C152.479 36.2612 151.409 36.4216 150.419 36.34C149.447 36.2683 148.578 36.0143 147.814 35.5779C146.581 34.8738 145.853 33.9512 145.629 32.8101C145.433 31.6616 145.736 30.384 146.54 28.9772L150.229 22.5164C150.576 21.9085 150.753 21.5376 150.761 21.4036C150.778 21.2523 150.653 21.0886 150.385 20.9126L149.026 19.9641L149.398 19.3128L152.967 21.3509L148.118 29.8437C147.354 31.181 147.032 32.2292 147.151 32.9883C147.288 33.7573 147.756 34.3699 148.555 34.8261C149.197 35.193 149.96 35.4099 150.843 35.4766C151.754 35.5358 152.831 35.3222 154.077 34.8356L158.435 27.2025C158.782 26.5946 158.96 26.2237 158.967 26.0897C158.984 25.9384 158.859 25.7747 158.591 25.5986L156.712 24.3527L157.084 23.7014L161.174 26.037L155.104 36.6661C154.757 37.2739 154.58 37.6448 154.572 37.7788C154.565 37.9128 154.69 38.0765 154.948 38.2699L156.307 39.2183Z" fill="black"/>
<path d="M169.9 22.7997L170.328 22.1836L173.704 24.5279L162.393 40.8159C161.994 41.3909 161.785 41.7448 161.766 41.8776C161.746 42.0103 161.857 42.1844 162.097 42.3998L163.367 43.4641L162.939 44.0802L157.666 40.4184L158.093 39.8023L159.534 40.6202C159.82 40.7699 160.022 40.8126 160.139 40.7482C160.257 40.6839 160.515 40.3642 160.915 39.7892L170.873 25.4479C171.273 24.8729 171.482 24.519 171.501 24.3862C171.532 24.237 171.421 24.0629 171.17 23.864L169.9 22.7997Z" fill="black"/>
<path d="M176.072 53.7836L175.536 54.3082L171.046 49.7193L171.582 49.1948L172.843 50.2693C173.095 50.47 173.285 50.5499 173.413 50.5089C173.541 50.4678 173.855 50.2025 174.355 49.713L179.652 44.5307C180.752 43.4537 181.335 42.5196 181.401 41.7283C181.466 40.937 181.163 40.1982 180.491 39.5121C179.96 38.9688 179.265 38.5299 178.405 38.1952C177.546 37.8606 176.437 37.7566 175.078 37.8832L168.795 44.0305C168.295 44.5201 168.023 44.8283 167.979 44.9551C167.935 45.0819 168.011 45.2736 168.206 45.5303L169.253 46.8146L168.717 47.3391L164.227 42.7503L164.763 42.2258L166.024 43.3003C166.277 43.501 166.467 43.5809 166.594 43.5398C166.722 43.4988 167.036 43.2335 167.537 42.7439L174.591 35.8413C175.092 35.3517 175.364 35.0436 175.408 34.9167C175.466 34.776 175.39 34.5842 175.18 34.3415L174.134 33.0572L174.67 32.5327L177.46 35.3846L175.788 37.0211C177.033 36.9498 178.113 37.096 179.029 37.4595C179.972 37.8234 180.766 38.3341 181.409 38.9917C182.444 40.0496 182.906 41.1648 182.794 42.3375C182.711 43.5104 182.09 44.6634 180.932 45.7963L175.614 50.9996C175.114 51.4891 174.842 51.7973 174.798 51.9241C174.754 52.0509 174.83 52.2427 175.025 52.4994L176.072 53.7836Z" fill="black"/>
<path d="M190.937 60.5056L190.442 60.846C188.614 62.1056 186.837 62.6626 185.109 62.5171C183.409 62.3766 181.998 61.4912 180.874 59.8607C179.74 58.2138 179.409 56.5712 179.884 54.9329C180.374 53.2833 181.534 51.8287 183.362 50.5692L183.856 50.2288C185.667 48.9806 187.423 48.4267 189.123 48.5671C190.839 48.6962 192.265 49.5842 193.399 51.2311C194.534 52.878 194.856 54.5263 194.365 56.1759C193.891 57.8142 192.748 59.2574 190.937 60.5056ZM190.273 58.4853C191.986 57.3052 193.001 56.1691 193.317 55.0769C193.649 53.9734 193.43 52.8616 192.658 51.7417C191.898 50.6383 190.937 50.0372 189.776 49.9385C188.643 49.8449 187.22 50.3881 185.507 51.5682L184.025 52.5895C182.329 53.7583 181.306 54.9001 180.957 56.015C180.636 57.1349 180.855 58.2467 181.615 59.3501C182.387 60.47 183.348 61.0711 184.497 61.1534C185.663 61.2243 187.095 60.6754 188.791 59.5066L190.273 58.4853Z" fill="black"/>
<path d="M194.648 67.8915L194.299 66.1581C194.067 65.0024 194.106 63.992 194.417 63.1268C194.754 62.2707 195.399 61.6092 196.35 61.1425C196.961 60.8431 197.615 60.7005 198.312 60.7148C199.019 60.747 199.706 60.9893 200.373 61.4417C201.049 61.912 201.63 62.6409 202.114 63.6285C202.678 64.7777 202.929 65.7904 202.869 66.6665C202.826 67.5338 202.557 68.2562 202.061 68.8338C201.591 69.4206 200.962 69.8406 200.173 70.094L199.15 68.6908C200.414 68.3158 201.228 67.7273 201.592 66.9251C201.956 66.1228 201.856 65.1471 201.293 63.9979C200.844 63.0821 200.271 62.4606 199.576 62.1332C198.899 61.7971 198.147 61.8316 197.321 62.2367C196.765 62.5097 196.368 62.9271 196.131 63.4887C195.912 64.0416 195.91 64.8556 196.126 65.9306L196.488 67.6909C196.747 68.9452 196.738 70.0632 196.462 71.0449C196.186 72.0267 195.519 72.7774 194.459 73.297C193.364 73.8342 192.281 73.8751 191.212 73.4197C190.16 72.9555 189.29 72.0231 188.603 70.6224C187.987 69.3655 187.754 68.1651 187.906 67.0214C188.058 65.8777 188.575 64.9111 189.458 64.1218L190.536 65.2303C189.564 66.0189 189.021 66.8421 188.907 67.6999C188.82 68.5669 188.988 69.4313 189.411 70.2932C189.649 70.778 189.967 71.2232 190.367 71.6288C190.766 72.0344 191.233 72.3063 191.769 72.4446C192.305 72.5828 192.878 72.5023 193.488 72.2028C194.099 71.9034 194.509 71.4235 194.72 70.7633C194.931 70.103 194.907 69.1457 194.648 67.8915ZM204.455 62.8146L204.715 62.0519C205.564 62.2373 206.332 62.3281 207.021 62.3245C207.719 62.3388 208.538 62.2601 209.478 62.0884L210.482 64.1354C208.426 63.9408 206.417 63.5005 204.455 62.8146Z" fill="black"/>
<path d="M208.48 78.6325C208.126 77.4652 207.416 76.6774 206.351 76.2693C205.312 75.8744 203.797 75.9793 201.807 76.5839L200.084 77.1071C198.113 77.7059 196.781 78.4452 196.086 79.325C195.417 80.2181 195.301 81.3823 195.737 82.8175C196.016 83.7361 196.459 84.406 197.068 84.8272C197.683 85.2676 198.583 85.4436 199.768 85.3552L199.796 86.7889C198.409 86.834 197.315 86.4662 196.514 85.6854C195.718 84.9239 195.157 84.0072 194.832 82.9356C194.239 80.9837 194.426 79.3279 195.392 77.9683C196.384 76.6219 197.941 75.6261 200.066 74.9808L200.64 74.8064C202.745 74.1669 204.574 74.1337 206.128 74.7069C207.706 75.2933 208.778 76.5147 209.341 78.3709C209.69 79.5191 209.751 80.5457 209.525 81.4506C209.323 82.3689 208.882 83.1195 208.202 83.7023C207.541 84.2793 206.7 84.6395 205.677 84.7829L204.922 83.2252C206.459 82.9881 207.526 82.4758 208.123 81.6883C208.739 80.895 208.858 79.8764 208.48 78.6325ZM211.652 77.5123L212.031 76.8012C212.839 77.1203 213.583 77.3332 214.263 77.44C214.95 77.566 215.771 77.6196 216.727 77.601L217.389 79.7825C215.391 79.2608 213.479 78.504 211.652 77.5123Z" fill="black"/>
<path d="M209.365 96.4025L210.381 96.3161L211.052 104.208L210.036 104.294L209.365 96.4025Z" fill="black"/>
</svg>
