<svg width="61" height="59" viewBox="0 0 61 59" fill="none" xmlns="http://www.w3.org/2000/svg">
<path d="M21.46 27.5762C21.8048 27.5762 22.1354 27.4393 22.3792 27.1955C22.623 26.9517 22.76 26.621 22.76 26.2762C22.76 25.9314 22.623 25.6008 22.3792 25.357C22.1354 25.1132 21.8048 24.9762 21.46 24.9762C20.4522 24.9762 19.4856 24.5759 18.773 23.8632C18.0604 23.1506 17.66 22.184 17.66 21.1762C17.66 20.1684 18.0604 19.2019 18.773 18.4892C19.4856 17.7766 20.4522 17.3762 21.46 17.3762C21.8048 17.3762 22.1354 17.2393 22.3792 16.9955C22.623 16.7517 22.76 16.421 22.76 16.0762C22.76 15.7314 22.623 15.4008 22.3792 15.157C22.1354 14.9132 21.8048 14.7762 21.46 14.7762C19.7826 14.7761 18.1729 15.4376 16.9803 16.6171C15.7877 17.7966 15.1084 19.399 15.09 21.0762C15.0845 22.7794 15.7498 24.4163 16.9419 25.6327C18.134 26.8491 19.7571 27.5473 21.46 27.5762Z" fill="#CAAA7A"/>
<path d="M21.05 20.4762C20.8083 20.2356 20.4811 20.1006 20.14 20.1006C19.7989 20.1006 19.4717 20.2356 19.23 20.4762C19.1115 20.5942 19.0174 20.7345 18.9533 20.8889C18.8891 21.0434 18.856 21.209 18.856 21.3762C18.856 21.5435 18.8891 21.7091 18.9533 21.8635C19.0174 22.018 19.1115 22.1582 19.23 22.2762L20.55 23.5762C20.7917 23.8168 21.1189 23.9519 21.46 23.9519C21.8011 23.9519 22.1283 23.8168 22.37 23.5762L26.21 19.7762C26.331 19.6596 26.4272 19.5198 26.4929 19.3652C26.5587 19.2105 26.5925 19.0442 26.5925 18.8762C26.5925 18.7082 26.5587 18.5419 26.4929 18.3873C26.4272 18.2326 26.331 18.0928 26.21 17.9762C25.9683 17.7356 25.6411 17.6006 25.3 17.6006C24.9589 17.6006 24.6317 17.7356 24.39 17.9762L21.46 20.8762L21.05 20.4762Z" fill="#CAAA7A"/>
<path d="M29.05 21.3762H34.1C34.4448 21.3762 34.7754 21.2393 35.0192 20.9955C35.263 20.7517 35.4 20.421 35.4 20.0762C35.4 19.7314 35.263 19.4008 35.0192 19.157C34.7754 18.9132 34.4448 18.7762 34.1 18.7762H29.05C28.7052 18.7762 28.3746 18.9132 28.1308 19.157C27.887 19.4008 27.75 19.7314 27.75 20.0762C27.75 20.421 27.887 20.7517 28.1308 20.9955C28.3746 21.2393 28.7052 21.3762 29.05 21.3762Z" fill="#CAAA7A"/>
<path d="M37.85 21.3762H39.16C39.5048 21.3762 39.8354 21.2393 40.0792 20.9955C40.323 20.7517 40.46 20.421 40.46 20.0762C40.46 19.7314 40.323 19.4008 40.0792 19.157C39.8354 18.9132 39.5048 18.7762 39.16 18.7762H37.85C37.5041 18.7787 37.1728 18.9159 36.9264 19.1586C36.68 19.4013 36.5378 19.7304 36.53 20.0762C36.5559 20.4158 36.7039 20.7345 36.9465 20.9734C37.1892 21.2124 37.5101 21.3555 37.85 21.3762Z" fill="#CAAA7A"/>
<path d="M29.05 25.0762H44.22C44.5648 25.0762 44.8954 24.9393 45.1392 24.6955C45.383 24.4517 45.52 24.121 45.52 23.7762C45.52 23.4314 45.383 23.1008 45.1392 22.857C44.8954 22.6132 44.5648 22.4762 44.22 22.4762H29.05C28.7052 22.4762 28.3746 22.6132 28.1308 22.857C27.887 23.1008 27.75 23.4314 27.75 23.7762C27.75 24.121 27.887 24.4517 28.1308 24.6955C28.3746 24.9393 28.7052 25.0762 29.05 25.0762Z" fill="#CAAA7A"/>
<path d="M21.46 41.3762C21.8048 41.3762 22.1354 41.2393 22.3792 40.9955C22.623 40.7517 22.76 40.421 22.76 40.0762C22.76 39.7314 22.623 39.4008 22.3792 39.157C22.1354 38.9132 21.8048 38.7762 21.46 38.7762C20.4522 38.7762 19.4856 38.3759 18.773 37.6632C18.0604 36.9506 17.66 35.984 17.66 34.9762C17.66 33.9684 18.0604 33.0019 18.773 32.2892C19.4856 31.5766 20.4522 31.1762 21.46 31.1762C21.8048 31.1762 22.1354 31.0393 22.3792 30.7955C22.623 30.5517 22.76 30.221 22.76 29.8762C22.76 29.5314 22.623 29.2008 22.3792 28.957C22.1354 28.7132 21.8048 28.5762 21.46 28.5762C19.7826 28.5761 18.1729 29.2376 16.9803 30.4171C15.7877 31.5966 15.1084 33.199 15.09 34.8762C15.0845 36.5794 15.7498 38.2163 16.9419 39.4327C18.134 40.6491 19.7571 41.3473 21.46 41.3762Z" fill="#CAAA7A"/>
<path d="M24.29 31.6762L21.36 34.5762L20.95 34.1762C20.7083 33.9356 20.3811 33.8006 20.04 33.8006C19.6989 33.8006 19.3717 33.9356 19.13 34.1762C19.0115 34.2942 18.9174 34.4345 18.8533 34.5889C18.7891 34.7434 18.756 34.909 18.756 35.0762C18.756 35.2435 18.7891 35.4091 18.8533 35.5635C18.9174 35.718 19.0115 35.8582 19.13 35.9762L20.45 37.2762C20.6917 37.5168 21.0189 37.6519 21.36 37.6519C21.7011 37.6519 22.0283 37.5168 22.27 37.2762L26.11 33.4762C26.231 33.3596 26.3272 33.2198 26.3929 33.0652C26.4587 32.9105 26.4925 32.7442 26.4925 32.5762C26.4925 32.4082 26.4587 32.2419 26.3929 32.0873C26.3272 31.9326 26.231 31.7928 26.11 31.6762C25.8683 31.4356 25.5411 31.3006 25.2 31.3006C24.8589 31.3006 24.5317 31.4356 24.29 31.6762Z" fill="#CAAA7A"/>
<path d="M29.05 35.0762H34.1C34.4448 35.0762 34.7754 34.9393 35.0192 34.6955C35.263 34.4517 35.4 34.121 35.4 33.7762C35.4 33.4314 35.263 33.1008 35.0192 32.857C34.7754 32.6132 34.4448 32.4762 34.1 32.4762H29.05C28.7052 32.4762 28.3746 32.6132 28.1308 32.857C27.887 33.1008 27.75 33.4314 27.75 33.7762C27.75 34.121 27.887 34.4517 28.1308 34.6955C28.3746 34.9393 28.7052 35.0762 29.05 35.0762Z" fill="#CAAA7A"/>
<path d="M37.85 32.5762C37.5052 32.5762 37.1745 32.7132 36.9308 32.957C36.687 33.2008 36.55 33.5314 36.55 33.8762C36.55 34.221 36.687 34.5517 36.9308 34.7955C37.1745 35.0393 37.5052 35.1762 37.85 35.1762H39.16C39.5048 35.1762 39.8354 35.0393 40.0792 34.7955C40.323 34.5517 40.46 34.221 40.46 33.8762C40.46 33.5314 40.323 33.2008 40.0792 32.957C39.8354 32.7132 39.5048 32.5762 39.16 32.5762H37.85Z" fill="#CAAA7A"/>
<path d="M29.05 38.8762H39.16C39.5048 38.8762 39.8354 38.7393 40.0792 38.4955C40.323 38.2517 40.46 37.921 40.46 37.5762C40.46 37.2314 40.323 36.9008 40.0792 36.657C39.8354 36.4132 39.5048 36.2762 39.16 36.2762H29.05C28.7052 36.2762 28.3746 36.4132 28.1308 36.657C27.887 36.9008 27.75 37.2314 27.75 37.5762C27.75 37.921 27.887 38.2517 28.1308 38.4955C28.3746 38.7393 28.7052 38.8762 29.05 38.8762Z" fill="#CAAA7A"/>
<path d="M3.76 48.8762C3.01019 48.8841 2.27947 49.1137 1.65984 49.536C1.04022 49.9583 0.559396 50.5545 0.277907 51.2495C-0.00358197 51.9446 -0.0731501 52.7073 0.0779598 53.4418C0.22907 54.1763 0.594103 54.8496 1.1271 55.3771C1.6601 55.9045 2.33723 56.2625 3.07325 56.4059C3.80926 56.5493 4.57125 56.4717 5.26329 56.183C5.95532 55.8942 6.54645 55.4072 6.96226 54.7832C7.37807 54.1592 7.59996 53.4261 7.6 52.6762C7.57677 51.6688 7.16351 50.7097 6.44724 50.0009C5.73098 49.2921 4.76761 48.8889 3.76 48.8762ZM3.76 53.8762C3.50332 53.8743 3.25297 53.7963 3.04051 53.6523C2.82804 53.5082 2.66297 53.3045 2.56611 53.0668C2.46925 52.8291 2.44493 52.568 2.49621 52.3165C2.5475 52.065 2.67209 51.8343 2.85429 51.6535C3.03649 51.4727 3.26814 51.3499 3.52004 51.3005C3.77194 51.2512 4.03281 51.2775 4.26977 51.3762C4.50673 51.4748 4.70918 51.6415 4.85159 51.855C4.99399 52.0686 5.06999 52.3195 5.07 52.5762C5.02947 52.9086 4.87817 53.2176 4.6405 53.4535C4.40284 53.6893 4.09267 53.8382 3.76 53.8762Z" fill="#CAAA7A"/>
<path d="M5.58001 13.8762C4.96689 13.8762 4.36754 14.058 3.85774 14.3987C3.34795 14.7393 2.95062 15.2235 2.71599 15.7899C2.48135 16.3564 2.41996 16.9797 2.53958 17.581C2.65919 18.1823 2.95444 18.7347 3.38798 19.1683C3.82152 19.6018 4.37389 19.897 4.97523 20.0167C5.57657 20.1363 6.19988 20.0749 6.76633 19.8402C7.33278 19.6056 7.81694 19.2083 8.15757 18.6985C8.4982 18.1887 8.68001 17.5893 8.68001 16.9762C8.66965 16.1573 8.33971 15.3748 7.76058 14.7957C7.18145 14.2165 6.39896 13.8866 5.58001 13.8762ZM5.58001 17.5762C5.46134 17.5762 5.34534 17.541 5.24667 17.4751C5.148 17.4092 5.0711 17.3155 5.02569 17.2058C4.98027 17.0962 4.96839 16.9756 4.99154 16.8592C5.01469 16.7428 5.07184 16.6359 5.15575 16.552C5.23966 16.468 5.34657 16.4109 5.46296 16.3877C5.57935 16.3646 5.69999 16.3765 5.80962 16.4219C5.91926 16.4673 6.01297 16.5442 6.07889 16.6429C6.14482 16.7415 6.18001 16.8576 6.18001 16.9762C6.28001 17.2762 5.98001 17.5762 5.58001 17.5762Z" fill="#CAAA7A"/>
<path d="M56.16 11.3762C57.0267 11.3605 57.8693 11.0891 58.5823 10.5961C59.2953 10.1032 59.8468 9.41059 60.1676 8.60534C60.4884 7.80008 60.5642 6.91801 60.3855 6.06984C60.2068 5.22166 59.7815 4.44515 59.1631 3.83778C58.5447 3.23041 57.7607 2.81922 56.9094 2.65583C56.0581 2.49244 55.1776 2.58412 54.3782 2.91937C53.5789 3.25461 52.8964 3.81849 52.4163 4.54024C51.9363 5.26198 51.6801 6.10942 51.68 6.97622C51.6984 8.1513 52.1788 9.27186 53.0173 10.0954C53.8557 10.9188 54.9848 11.379 56.16 11.3762ZM56.16 5.07623C56.4108 5.07491 56.6594 5.12301 56.8917 5.21778C57.1239 5.31255 57.3352 5.45214 57.5135 5.62857C57.6918 5.805 57.8336 6.01483 57.9308 6.24606C58.028 6.47729 58.0787 6.7254 58.08 6.97622C58.0449 7.4628 57.8268 7.91803 57.4697 8.25034C57.1126 8.58265 56.6428 8.76739 56.155 8.76739C55.6672 8.76739 55.1974 8.58265 54.8403 8.25034C54.4831 7.91803 54.2651 7.4628 54.23 6.97622C54.2313 6.72455 54.2823 6.47562 54.3801 6.24373C54.478 6.01184 54.6207 5.80157 54.8 5.62501C54.9794 5.44845 55.1918 5.30907 55.4252 5.21489C55.6586 5.12071 55.9083 5.07359 56.16 5.07623Z" fill="#CAAA7A"/>
<path d="M50.49 36.3762V12.2762C50.4874 11.6555 50.3624 11.0415 50.1221 10.4692C49.8818 9.89684 49.5311 9.37754 49.0899 8.94097C48.6487 8.5044 48.1257 8.15915 47.5508 7.92496C46.976 7.69078 46.3607 7.57227 45.74 7.57622H42.68C42.4042 6.49643 41.7789 5.53821 40.9017 4.85087C40.0244 4.16353 38.9444 3.78569 37.83 3.77622H35.12C34.8454 2.68842 34.2129 1.72458 33.3243 1.0397C32.4356 0.354829 31.3425 -0.0112771 30.2206 0.000264772C29.0988 0.0118066 28.0134 0.400324 27.139 1.10334C26.2647 1.80635 25.6521 2.783 25.4 3.87622H22.68C21.5633 3.87709 20.4791 4.25172 19.6001 4.94041C18.7211 5.6291 18.098 6.59221 17.83 7.67622H14.83C14.2093 7.67227 13.5939 7.79078 13.0191 8.02496C12.4443 8.25915 11.9213 8.6044 11.4801 9.04097C11.0389 9.47754 10.6881 9.99684 10.4479 10.5692C10.2076 11.1415 10.0826 11.7555 10.08 12.3762V54.2762C10.0826 54.8969 10.2076 55.511 10.4479 56.0833C10.6881 56.6556 11.0389 57.1749 11.4801 57.6115C11.9213 58.048 12.4443 58.3933 13.0191 58.6275C13.5939 58.8617 14.2093 58.9802 14.83 58.9762H45.83C46.2734 58.9662 46.7138 58.899 47.14 58.7762C48.7693 59.0709 50.4434 59.0056 52.0449 58.5848C53.6463 58.1639 55.1362 57.3978 56.4102 56.3401C57.6842 55.2825 58.7113 53.9589 59.4195 52.4622C60.1278 50.9655 60.5 49.332 60.51 47.6762C60.5573 44.8803 59.5543 42.1684 57.6991 40.0762C55.8439 37.984 53.2714 36.6637 50.49 36.3762ZM22.68 6.37622H26.53C26.8724 6.36858 27.1986 6.22917 27.4408 5.98701C27.6829 5.74485 27.8223 5.41861 27.83 5.07622C27.83 4.40523 28.0965 3.76171 28.571 3.28724C29.0455 2.81278 29.689 2.54622 30.36 2.54622C31.031 2.54622 31.6745 2.81278 32.149 3.28724C32.6234 3.76171 32.89 4.40523 32.89 5.07622C32.8977 5.4203 33.0385 5.74799 33.2828 5.99042C33.5271 6.23284 33.8559 6.37113 34.2 6.37622H38.05C38.713 6.37622 39.3489 6.63961 39.8178 7.10846C40.2866 7.5773 40.55 8.21318 40.55 8.87622C40.55 9.53926 40.2866 10.1751 39.8178 10.644C39.3489 11.1128 38.713 11.3762 38.05 11.3762H22.87C22.5396 11.3802 22.2118 11.3184 21.9056 11.1944C21.5993 11.0705 21.3208 10.8868 21.0863 10.6541C20.8518 10.4214 20.6659 10.1444 20.5395 9.83916C20.413 9.53393 20.3486 9.20659 20.35 8.87622C20.3251 8.55592 20.3669 8.23393 20.4729 7.93065C20.5789 7.62737 20.7468 7.34942 20.9658 7.11439C21.1849 6.87937 21.4503 6.6924 21.7454 6.56533C22.0405 6.43827 22.3587 6.37387 22.68 6.37622ZM14.79 56.3762C14.2054 56.3737 13.6453 56.1417 13.2301 55.7302C12.8149 55.3188 12.5778 54.7607 12.57 54.1762V12.2762C12.5778 11.6935 12.8135 11.1369 13.2265 10.7257C13.6396 10.3145 14.1972 10.0814 14.78 10.0762H17.78C18.0574 11.1092 18.6587 12.026 19.4957 12.692C20.3326 13.3579 21.3611 13.738 22.43 13.7762H38.25C38.4258 13.7884 38.6018 13.7539 38.76 13.6762C39.7131 13.5124 40.5983 13.0757 41.3083 12.419C42.0182 11.7623 42.5225 10.9137 42.76 9.97622H45.76C46.3445 9.97879 46.9047 10.2108 47.3199 10.6222C47.7351 11.0337 47.9721 11.5917 47.98 12.1762V36.2762C45.2263 36.5899 42.6836 37.9037 40.8346 39.9684C38.9856 42.033 37.9591 44.7047 37.95 47.4762C37.9478 49.1545 38.3296 50.811 39.0663 52.319C39.8029 53.827 40.8748 55.1464 42.2 56.1762H14.78L14.79 56.3762ZM49.29 56.3762C47.5539 56.3565 45.8625 55.8237 44.4285 54.8448C42.9946 53.8659 41.8822 52.4847 41.2315 50.8751C40.5807 49.2655 40.4207 47.4993 40.7714 45.7989C41.1222 44.0986 41.9681 42.5399 43.2027 41.3192C44.4373 40.0985 46.0054 39.2702 47.7096 38.9387C49.4139 38.6072 51.1781 38.7872 52.7803 39.4561C54.3825 40.125 55.751 41.2529 56.7136 42.6978C57.6762 44.1427 58.1899 45.84 58.19 47.5762C58.1741 49.9243 57.2268 52.1701 55.5561 53.8201C53.8855 55.4702 51.6281 56.3895 49.28 56.3762H49.29Z" fill="#CAAA7A"/>
<path d="M31.57 43.8762H17.57C17.3993 43.8762 17.2302 43.9098 17.0725 43.9752C16.9148 44.0405 16.7715 44.1363 16.6507 44.257C16.53 44.3777 16.4343 44.521 16.3689 44.6787C16.3036 44.8365 16.27 45.0055 16.27 45.1762C16.27 45.3469 16.3036 45.516 16.3689 45.6737C16.4343 45.8314 16.53 45.9747 16.6507 46.0955C16.7715 46.2162 16.9148 46.3119 17.0725 46.3773C17.2302 46.4426 17.3993 46.4762 17.57 46.4762H31.57C31.9159 46.4737 32.2471 46.3366 32.4936 46.0939C32.74 45.8512 32.8822 45.522 32.89 45.1762C32.8661 44.8359 32.7188 44.516 32.4758 44.2766C32.2327 44.0373 31.9106 43.8949 31.57 43.8762Z" fill="#CAAA7A"/>
<path d="M31.57 47.5762H17.57C17.3993 47.5762 17.2302 47.6098 17.0725 47.6752C16.9148 47.7405 16.7715 47.8363 16.6507 47.957C16.53 48.0777 16.4343 48.221 16.3689 48.3787C16.3036 48.5365 16.27 48.7055 16.27 48.8762C16.27 49.0469 16.3036 49.216 16.3689 49.3737C16.4343 49.5314 16.53 49.6747 16.6507 49.7955C16.7715 49.9162 16.9148 50.0119 17.0725 50.0773C17.2302 50.1426 17.3993 50.1762 17.57 50.1762H31.57C31.9159 50.1737 32.2471 50.0366 32.4936 49.7939C32.74 49.5512 32.8822 49.222 32.89 48.8762C32.849 48.5424 32.6963 48.2322 32.4566 47.9961C32.2169 47.7601 31.9045 47.6121 31.57 47.5762Z" fill="#CAAA7A"/>
<path d="M53.93 45.5762L49.38 47.0762L44.83 44.0762C44.5609 43.8919 44.2303 43.8201 43.9089 43.8762C43.5876 43.9322 43.3009 44.1117 43.11 44.3762C43.0167 44.5071 42.9504 44.6552 42.9149 44.8119C42.8795 44.9686 42.8756 45.1309 42.9035 45.2891C42.9314 45.4474 42.9906 45.5985 43.0776 45.7336C43.1645 45.8688 43.2775 45.9852 43.41 46.0762L48.47 49.3762C48.6289 49.4912 48.8159 49.5612 49.0113 49.5788C49.2066 49.5964 49.4031 49.561 49.58 49.4762L54.68 47.7762C54.8413 47.7289 54.9911 47.6491 55.1203 47.5416C55.2495 47.4342 55.3553 47.3014 55.4312 47.1515C55.5071 47.0016 55.5515 46.8377 55.5616 46.6699C55.5717 46.5022 55.5473 46.3342 55.49 46.1762C55.3482 45.9029 55.1112 45.6909 54.8238 45.5803C54.5364 45.4698 54.2184 45.4683 53.93 45.5762Z" fill="#CAAA7A"/>
</svg>
