<svg width="34" height="38" viewBox="0 0 34 38" fill="none" xmlns="http://www.w3.org/2000/svg">
<path d="M28.1955 32.8588H26.4706C26.2682 31.9341 25.7574 31.1058 25.022 30.5099C24.2866 29.9139 23.3704 29.5858 22.4239 29.5794C22.1982 29.5761 21.9826 29.4854 21.8224 29.3264C21.6622 29.1674 21.5698 28.9525 21.5648 28.7268V27.743C22.0479 27.5841 22.4686 27.2765 22.7666 26.8643C23.0645 26.452 23.2247 25.9562 23.2241 25.4475C23.2255 24.9477 23.0735 24.4595 22.7884 24.049C22.5034 23.6384 22.0991 23.3253 21.6303 23.152C23.5528 21.9575 24.957 20.0851 25.5655 17.9051C27.3424 17.3217 28.9243 16.2603 30.1379 14.8373C31.3515 13.4143 32.1499 11.6847 32.4455 9.83798L33.1735 5.05019C33.1905 4.93621 33.1827 4.8199 33.1506 4.70922C33.1185 4.59854 33.0629 4.4961 32.9875 4.40891C32.9121 4.32172 32.8188 4.25183 32.714 4.20404C32.6091 4.15624 32.4952 4.13166 32.3799 4.13198H27.0674L27.4019 0.918255C27.4137 0.804636 27.4019 0.689811 27.3674 0.58092C27.3329 0.472029 27.2764 0.371399 27.2014 0.285283C27.1263 0.199167 27.0344 0.129405 26.9312 0.0803357C26.8281 0.0312664 26.7159 0.00393825 26.6018 4.80052e-05H6.63732C6.52153 -0.00122035 6.40684 0.0226587 6.30118 0.0700379C6.19551 0.117417 6.10139 0.187167 6.02532 0.274469C5.94924 0.361772 5.89302 0.464546 5.86053 0.575696C5.82805 0.686847 5.82008 0.803724 5.83717 0.918255L6.17166 4.13198H0.859177C0.74219 4.12565 0.625307 4.1462 0.51749 4.19204C0.409673 4.23788 0.313785 4.3078 0.237175 4.39644C0.160566 4.48508 0.10527 4.59009 0.0755263 4.70341C0.0457828 4.81672 0.0423806 4.93535 0.0655825 5.05019L0.79359 9.83798C1.08978 11.6854 1.88913 13.4156 3.10394 14.8387C4.31874 16.2617 5.90205 17.3227 7.68014 17.9051C8.2886 20.0851 9.69288 21.9575 11.6153 23.152C11.1337 23.3128 10.7149 23.621 10.4182 24.033C10.1214 24.4449 9.96176 24.9398 9.96176 25.4475C9.96176 25.9552 10.1214 26.4501 10.4182 26.862C10.7149 27.274 11.1337 27.5822 11.6153 27.743V28.7268C11.6103 28.9525 11.5179 29.1674 11.3577 29.3264C11.1975 29.4854 10.9818 29.5761 10.7561 29.5794C9.80963 29.5858 8.89344 29.9139 8.15806 30.5099C7.42268 31.1058 6.91185 31.9341 6.70947 32.8588H4.97799C3.87725 32.8587 2.82081 33.2923 2.03757 34.0657C1.25433 34.8391 0.807392 35.89 0.79359 36.9907C0.798701 37.2175 0.891959 37.4334 1.05358 37.5925C1.21521 37.7517 1.43249 37.8417 1.65933 37.8433H31.5142C31.6244 37.8467 31.7341 37.8265 31.8359 37.784C31.9377 37.7415 32.0293 37.6778 32.1044 37.597C32.1796 37.5163 32.2366 37.4204 32.2717 37.3158C32.3067 37.2113 32.319 37.1004 32.3078 36.9907C32.3148 36.4478 32.2133 35.909 32.0094 35.4058C31.8055 34.9026 31.5031 34.4452 31.1201 34.0604C30.7371 33.6755 30.2812 33.371 29.779 33.1647C29.2768 32.9584 28.7384 32.8543 28.1955 32.8588ZM25.8738 16.0031L26.5296 9.05095H30.8452L30.7796 9.57564C30.5577 10.9693 29.9933 12.2861 29.1371 13.4079C28.2808 14.5297 27.1595 15.4214 25.8738 16.0031ZM31.383 5.77164L31.1141 7.41129H26.7395L26.8707 5.77164H31.383ZM6.30283 5.77164L6.43401 7.41129H2.0594L1.77738 5.77164H6.30283ZM2.36766 9.57564L2.30207 9.05095H6.61765L7.27351 16.0031C5.99141 15.4189 4.87407 14.526 4.0214 13.4044C3.16874 12.2827 2.60731 10.9673 2.38734 9.57564H2.36766ZM9.02466 16.3966L7.56209 1.70529H25.6114L25.3425 4.19757H13.2681C13.042 4.19757 12.8251 4.2874 12.6652 4.44729C12.5053 4.60719 12.4155 4.82406 12.4155 5.05019C12.4155 5.27632 12.5053 5.49318 12.6652 5.65308C12.8251 5.81298 13.042 5.90281 13.2681 5.90281H25.2113L24.1488 16.5278C23.9056 18.361 23.0046 20.0434 21.6135 21.2619C20.2224 22.4805 18.4361 23.1522 16.5868 23.152C14.7243 23.1245 12.9343 22.4262 11.5453 21.1853C10.1562 19.9444 9.26123 18.2441 9.02466 16.3966ZM20.7974 24.6605C21.0235 24.6605 21.2404 24.7503 21.4003 24.9102C21.5602 25.0701 21.65 25.287 21.65 25.5131C21.65 25.7392 21.5602 25.9561 21.4003 26.116C21.2404 26.2759 21.0235 26.3657 20.7974 26.3657H12.4745C12.2484 26.3657 12.0315 26.2759 11.8716 26.116C11.7117 25.9561 11.6219 25.7392 11.6219 25.5131C11.6219 25.287 11.7117 25.0701 11.8716 24.9102C12.0315 24.7503 12.2484 24.6605 12.4745 24.6605H20.7974ZM10.848 31.2191C11.5068 31.2139 12.137 30.9495 12.6022 30.483C13.0675 30.0166 13.3302 29.3856 13.3337 28.7268V27.8742H19.971V28.7268C19.9825 29.0151 20.0265 29.3011 20.1022 29.5794H16.5868C16.4748 29.5794 16.3639 29.6015 16.2605 29.6443C16.157 29.6872 16.063 29.75 15.9839 29.8292C15.9047 29.9083 15.8419 30.0023 15.799 30.1058C15.7562 30.2092 15.7341 30.3201 15.7341 30.4321C15.7341 30.544 15.7562 30.6549 15.799 30.7583C15.8419 30.8618 15.9047 30.9558 15.9839 31.035C16.063 31.1141 16.157 31.1769 16.2605 31.2198C16.3639 31.2626 16.4748 31.2847 16.5868 31.2847H22.4239C22.9319 31.2819 23.428 31.4387 23.8422 31.7329C24.2564 32.027 24.5678 32.4438 24.7326 32.9243H8.42783C8.58413 32.4179 8.90237 31.9768 9.33365 31.6687C9.76493 31.3607 10.2854 31.2027 10.8152 31.2191H10.848ZM2.65624 36.1381C2.8217 35.6554 3.13512 35.2371 3.55193 34.9427C3.96875 34.6484 4.46775 34.4929 4.97799 34.4984H28.1955C28.7058 34.4929 29.2048 34.6484 29.6216 34.9427C30.0384 35.2371 30.3518 35.6554 30.5173 36.1381H2.65624Z" fill="#CAAA7A"/>
<path d="M4.17784 26.6937C4.17266 26.1526 3.95409 25.6355 3.56966 25.2548C3.18524 24.874 2.66605 24.6605 2.12499 24.6605C1.57648 24.6583 1.04852 24.869 0.652194 25.2482C0.255867 25.6274 0.0220723 26.1456 0 26.6937C0.0069003 27.2353 0.226914 27.7524 0.612383 28.1329C0.997851 28.5135 1.51773 28.7269 2.05941 28.7268C2.60727 28.7289 3.1345 28.518 3.52978 28.1386C3.92505 27.7593 4.15743 27.2411 4.17784 26.6937ZM1.65933 26.6937C1.65803 26.6143 1.68038 26.5363 1.72354 26.4696C1.76671 26.403 1.82873 26.3507 1.90171 26.3194C1.97469 26.2881 2.05533 26.2792 2.13336 26.2939C2.21139 26.3086 2.28329 26.3462 2.3399 26.4019C2.39651 26.4576 2.43527 26.5288 2.45125 26.6066C2.46722 26.6844 2.45969 26.7652 2.42961 26.8386C2.39954 26.9121 2.34827 26.975 2.28234 27.0193C2.21642 27.0635 2.13881 27.0872 2.05941 27.0872C1.95639 27.0811 1.85906 27.0379 1.78549 26.9655C1.71192 26.8932 1.66709 26.7966 1.65933 26.6937Z" fill="#CAAA7A"/>
<path d="M31.9471 28.7268C31.5458 28.7307 31.1547 28.8532 30.8229 29.079C30.4911 29.3047 30.2336 29.6236 30.0827 29.9955C29.9319 30.3673 29.8944 30.7755 29.9751 31.1686C30.0557 31.5617 30.2509 31.9221 30.536 32.2045C30.8211 32.4869 31.1834 32.6786 31.5773 32.7554C31.9711 32.8323 32.3789 32.7909 32.7493 32.6364C33.1196 32.482 33.436 32.2214 33.6586 31.8875C33.8811 31.5536 33.9999 31.1613 33.9999 30.76C34.0026 30.4906 33.9512 30.2234 33.8487 29.9742C33.7463 29.725 33.5948 29.4989 33.4034 29.3093C33.212 29.1197 32.9844 28.9705 32.7343 28.8704C32.4841 28.7704 32.2164 28.7215 31.9471 28.7268ZM31.9471 31.2191C31.8692 31.2191 31.7931 31.196 31.7284 31.1528C31.6637 31.1095 31.6133 31.0481 31.5835 30.9762C31.5537 30.9043 31.5459 30.8251 31.5611 30.7488C31.5763 30.6725 31.6138 30.6024 31.6688 30.5473C31.7238 30.4923 31.794 30.4548 31.8703 30.4396C31.9466 30.4244 32.0257 30.4322 32.0976 30.462C32.1696 30.4918 32.231 30.5422 32.2743 30.607C32.3175 30.6717 32.3406 30.7477 32.3406 30.8256C32.3799 31.0223 32.1766 31.2191 31.9471 31.2191Z" fill="#CAAA7A"/>
<path d="M26.5362 20.9221C26.5284 21.5025 26.6934 22.0721 27.0104 22.5584C27.3273 23.0448 27.7818 23.4258 28.3159 23.6531C28.8501 23.8803 29.4397 23.9435 30.0099 23.8346C30.5801 23.7257 31.105 23.4496 31.5177 23.0414C31.9305 22.6333 32.2125 22.1116 32.3279 21.5427C32.4432 20.9738 32.3867 20.3834 32.1655 19.8467C31.9443 19.31 31.5684 18.8513 31.0857 18.5289C30.603 18.2065 30.0353 18.035 29.4548 18.0363C28.6874 18.0396 27.9519 18.3437 27.4062 18.8832C26.8606 19.4228 26.5482 20.1548 26.5362 20.9221ZM30.7206 20.9221C30.7197 21.0871 30.6863 21.2504 30.6221 21.4025C30.5579 21.5546 30.4644 21.6925 30.3467 21.8083C30.2291 21.9241 30.0897 22.0155 29.9367 22.0772C29.7836 22.139 29.6198 22.1699 29.4548 22.1682C29.1243 22.1682 28.8073 22.0369 28.5736 21.8032C28.3399 21.5695 28.2086 21.2526 28.2086 20.9221C28.2086 20.5916 28.3399 20.2746 28.5736 20.0409C28.8073 19.8072 29.1243 19.6759 29.4548 19.6759C29.6198 19.6742 29.7836 19.7051 29.9367 19.7669C30.0897 19.8286 30.2291 19.92 30.3467 20.0358C30.4644 20.1516 30.5579 20.2896 30.6221 20.4416C30.6863 20.5937 30.7197 20.757 30.7206 20.9221Z" fill="#CAAA7A"/>
<path d="M19.1709 18.0363C19.3037 18.1377 19.4702 18.1847 19.6365 18.1674C19.7653 18.1709 19.8932 18.1437 20.0094 18.0881C20.1257 18.0325 20.2271 17.9501 20.3052 17.8476C20.3834 17.7451 20.436 17.6255 20.4589 17.4987C20.4818 17.3718 20.4741 17.2414 20.4367 17.1181L19.4398 14.1011L22.0239 12.2647C22.1575 12.1562 22.2592 12.0135 22.3181 11.8518C22.377 11.6901 22.3909 11.5155 22.3583 11.3465C22.3038 11.1778 22.1981 11.0303 22.0559 10.9245C21.9136 10.8187 21.742 10.7599 21.5647 10.7562H18.3773L17.3803 7.73923C17.313 7.58476 17.202 7.4533 17.0611 7.36098C16.9201 7.26866 16.7553 7.21948 16.5868 7.21948C16.4182 7.21948 16.2534 7.26866 16.1124 7.36098C15.9715 7.4533 15.8605 7.58476 15.7932 7.73923L14.7963 10.7562H11.6153C11.4407 10.7694 11.2735 10.8318 11.133 10.9363C10.9925 11.0408 10.8846 11.183 10.8217 11.3465C10.7589 11.5136 10.7573 11.6976 10.8174 11.8657C10.8774 12.0338 10.9952 12.1752 11.1497 12.2647L13.7403 14.1011L12.7434 17.1181C12.6797 17.2858 12.6785 17.4708 12.7399 17.6394C12.8013 17.8079 12.9213 17.9488 13.0779 18.0363C13.2261 18.1331 13.3993 18.1846 13.5763 18.1846C13.7534 18.1846 13.9266 18.1331 14.0748 18.0363L16.6589 16.1999L19.1709 18.0363ZM15.0586 15.2161L15.4587 14.0355C15.5224 13.8678 15.5236 13.6828 15.4622 13.5142C15.4008 13.3456 15.2808 13.2048 15.1242 13.1173L14.1338 12.3303H15.3931C15.5657 12.3346 15.7356 12.2869 15.8806 12.1933C16.0257 12.0997 16.1392 11.9646 16.2064 11.8056L16.6064 10.625L17.0065 11.8056C17.0643 11.967 17.1729 12.1054 17.316 12.2C17.459 12.2946 17.6289 12.3403 17.8001 12.3303H19.0594L18.069 13.0517C17.9354 13.1602 17.8337 13.3029 17.7748 13.4646C17.7159 13.6263 17.702 13.8009 17.7345 13.9699L18.1346 15.1505L17.1377 14.429C16.9895 14.3322 16.8163 14.2807 16.6392 14.2807C16.4622 14.2807 16.289 14.3322 16.1408 14.429L15.0586 15.2161Z" fill="#CAAA7A"/>
<path d="M11.6153 4.9846C11.6179 4.81256 11.5692 4.64364 11.4754 4.49942C11.3816 4.35519 11.2469 4.24219 11.0885 4.17484C10.9302 4.10749 10.7554 4.08885 10.5864 4.1213C10.4175 4.15374 10.262 4.2358 10.1399 4.35699C10.0177 4.47819 9.93449 4.63303 9.90075 4.80175C9.86701 4.97047 9.88431 5.14542 9.95044 5.30426C10.0166 5.4631 10.1285 5.59864 10.272 5.69356C10.4155 5.78849 10.5841 5.8385 10.7561 5.83722C11.0119 5.77163 11.6153 5.37812 11.6153 4.9846Z" fill="#CAAA7A"/>
</svg>
