<svg width="35" height="36" viewBox="0 0 35 36" fill="none" xmlns="http://www.w3.org/2000/svg">
<path d="M17.5943 18.9763V14.7339C17.5774 14.54 17.4884 14.3596 17.345 14.2281C17.2015 14.0966 17.014 14.0237 16.8194 14.0237C16.6249 14.0237 16.4374 14.0966 16.2939 14.2281C16.1505 14.3596 16.0615 14.54 16.0446 14.7339V18.9763C15.7262 19.1191 15.4556 19.3506 15.2654 19.6432C15.0752 19.9359 14.9734 20.2771 14.9722 20.6261C14.9665 20.9595 15.0511 21.2882 15.2168 21.5775C15.3826 21.8668 15.6234 22.1059 15.9139 22.2695C16.2044 22.4332 16.5337 22.5153 16.867 22.5073C17.2003 22.4992 17.5253 22.4012 17.8075 22.2236C18.0896 22.046 18.3186 21.7955 18.4702 21.4985C18.6217 21.2015 18.6902 20.8691 18.6683 20.5364C18.6465 20.2037 18.5351 19.8831 18.3461 19.6085C18.157 19.3339 17.8973 19.1154 17.5943 18.9763ZM16.8165 20.9797C16.7468 20.9785 16.6791 20.9568 16.6217 20.9172C16.5644 20.8777 16.52 20.8221 16.4941 20.7574C16.4683 20.6927 16.4621 20.6218 16.4764 20.5536C16.4907 20.4854 16.5248 20.423 16.5745 20.3741C16.6241 20.3253 16.6871 20.2922 16.7556 20.279C16.824 20.2658 16.8948 20.2732 16.959 20.3001C17.0233 20.327 17.0781 20.3723 17.1167 20.4303C17.1553 20.4883 17.1759 20.5565 17.1759 20.6261C17.169 20.7186 17.1287 20.8054 17.0626 20.8704C16.9965 20.9354 16.9091 20.9742 16.8165 20.9797Z" fill="#CAAA7A"/>
<path d="M27.4284 10.2558L27.6052 9.96114C27.8064 9.68722 27.9517 9.37636 28.0327 9.0463C28.1137 8.71625 28.129 8.37346 28.0776 8.03751C28.0261 7.70156 27.909 7.37903 27.733 7.08834C27.5569 6.79765 27.3253 6.54448 27.0513 6.3433C26.7774 6.14211 26.4666 5.99685 26.1365 5.91581C25.8064 5.83476 25.4637 5.81952 25.1277 5.87095C24.7918 5.92238 24.4692 6.03948 24.1785 6.21556C23.8878 6.39164 23.6347 6.62325 23.4335 6.89717L23.1978 7.2507C21.9966 6.70835 20.7344 6.31268 19.4385 6.07225V4.3635H20.2163C20.5119 4.36505 20.8049 4.30837 21.0786 4.19668C21.3523 4.085 21.6013 3.9205 21.8114 3.71259C22.0215 3.50467 22.1886 3.2574 22.3031 2.98491C22.4177 2.71242 22.4774 2.42003 22.479 2.12444C22.4684 1.83187 22.3997 1.54432 22.2768 1.2786C22.1539 1.01288 21.9793 0.774318 21.7632 0.576837C21.547 0.379357 21.2937 0.226921 21.018 0.128435C20.7423 0.0299482 20.4497 -0.0126151 20.1574 0.00323016H13.4815C12.8876 0.00323016 12.3181 0.239131 11.8982 0.659035C11.4783 1.07894 11.2424 1.64845 11.2424 2.24229C11.2424 2.83612 11.4783 3.40564 11.8982 3.82554C12.3181 4.24544 12.8876 4.48134 13.4815 4.48134H14.2534V6.1901C12.5219 6.51246 10.853 7.10919 9.30976 7.95778L8.89141 7.07394C8.79814 6.89813 8.64191 6.76402 8.45399 6.69847C8.26607 6.63292 8.06033 6.64075 7.87794 6.7204C7.70094 6.80935 7.56491 6.96295 7.49801 7.1494C7.43111 7.33585 7.43845 7.54089 7.51852 7.72208L8.05471 8.78269C6.15341 10.1166 4.60236 11.89 3.53341 13.952C2.46447 16.0139 1.90926 18.3036 1.91498 20.6261C1.90005 23.076 2.48938 25.4917 3.63077 27.6595C4.77216 29.8272 6.43042 31.6801 8.45873 33.0541C10.487 34.4282 12.8228 35.2809 15.2593 35.5369C17.6958 35.7928 20.1578 35.4441 22.4274 34.5216C24.6969 33.5991 26.7041 32.1313 28.271 30.248C29.838 28.3648 30.9165 26.1243 31.411 23.7248C31.9055 21.3254 31.8008 18.841 31.1062 16.4916C30.4115 14.1423 29.1483 12.0005 27.4284 10.2558ZM24.4823 8.0167L24.6061 7.83993C24.6901 7.71294 24.7999 7.60509 24.9284 7.52338C25.0569 7.44168 25.2012 7.38796 25.3519 7.36572C25.5025 7.34349 25.6561 7.35323 25.8028 7.39433C25.9494 7.43543 26.0857 7.50695 26.2029 7.60424C26.4347 7.77804 26.5892 8.03576 26.6333 8.32215C26.6773 8.60853 26.6074 8.90078 26.4386 9.13623L26.3207 9.25407C25.7443 8.80129 25.138 8.38789 24.5059 8.0167H24.4823ZM12.6978 2.24229C12.7024 2.03854 12.7862 1.8446 12.9314 1.70159C13.0766 1.55859 13.2718 1.47777 13.4756 1.47629H20.2163C20.4195 1.47629 20.6143 1.557 20.758 1.70065C20.9016 1.8443 20.9823 2.03913 20.9823 2.24229C20.9823 2.44544 20.9016 2.64027 20.758 2.78393C20.6143 2.92758 20.4195 3.00828 20.2163 3.00828H13.4815C13.2848 2.98613 13.1012 2.8986 12.9602 2.75971C12.8192 2.62083 12.7288 2.43862 12.7037 2.24229H12.6978ZM16.8224 33.8837C13.4444 33.9085 10.1844 32.6423 7.70881 30.3439C5.23318 28.0454 3.72877 24.8883 3.50307 21.5178C3.27736 18.1472 4.34739 14.8177 6.49447 12.2098C8.64155 9.60177 11.7036 7.91222 15.0547 7.4864C15.2291 7.46329 15.3899 7.37998 15.5093 7.25086C15.6287 7.12175 15.6993 6.95495 15.7087 6.77932V4.42242H17.9537V6.77932C17.9532 6.95801 18.0204 7.13027 18.1417 7.26145C18.263 7.39262 18.4296 7.47299 18.6077 7.4864C21.9589 7.91222 25.0209 9.60177 27.168 12.2098C29.3151 14.8177 30.3851 18.1472 30.1594 21.5178C29.9337 24.8883 28.4293 28.0454 25.9536 30.3439C23.478 32.6423 20.2181 33.9085 16.8401 33.8837H16.8224Z" fill="#CAAA7A"/>
<path d="M2.21549 29.4645C1.77368 29.4692 1.34312 29.6044 0.978022 29.8533C0.612925 30.1021 0.329611 30.4534 0.163751 30.8629C-0.00210978 31.2724 -0.0431022 31.7219 0.0459356 32.1547C0.134973 32.5874 0.350061 32.9842 0.664116 33.295C0.978172 33.6057 1.37716 33.8167 1.81084 33.9012C2.24451 33.9857 2.6935 33.94 3.10126 33.7698C3.50903 33.5997 3.85734 33.3127 4.10234 32.945C4.34735 32.5774 4.47809 32.1454 4.47811 31.7036C4.47657 31.408 4.41682 31.1156 4.30228 30.8431C4.18773 30.5706 4.02064 30.3233 3.81053 30.1154C3.60043 29.9075 3.35143 29.743 3.07775 29.6313C2.80407 29.5196 2.51108 29.463 2.21549 29.4645ZM2.21549 32.4106C2.06451 32.4083 1.91759 32.3614 1.79319 32.2759C1.66878 32.1903 1.57243 32.0699 1.51626 31.9297C1.46009 31.7895 1.44659 31.6359 1.47746 31.4881C1.50834 31.3403 1.5822 31.2049 1.68978 31.099C1.79736 30.993 1.93386 30.9212 2.08212 30.8926C2.23037 30.864 2.38378 30.8799 2.52306 30.9382C2.66235 30.9965 2.78129 31.0946 2.86495 31.2203C2.94861 31.346 2.99325 31.4936 2.99327 31.6446C2.98868 31.8484 2.90489 32.0423 2.75969 32.1853C2.61448 32.3283 2.41928 32.4092 2.21549 32.4106Z" fill="#CAAA7A"/>
<path d="M32.378 2.24229C31.8665 2.2481 31.3682 2.40508 30.9457 2.69347C30.5232 2.98186 30.1955 3.38877 30.0038 3.86298C29.8121 4.3372 29.7649 4.85753 29.8683 5.35849C29.9716 5.85944 30.2208 6.31864 30.5846 6.67828C30.9483 7.03792 31.4103 7.28193 31.9124 7.3796C32.4145 7.47727 32.9342 7.42424 33.4062 7.22718C33.8783 7.03011 34.2814 6.69783 34.565 6.27214C34.8486 5.84645 35 5.34638 35 4.83488C34.9907 4.14507 34.7106 3.48657 34.22 3.00152C33.7294 2.51647 33.0678 2.24377 32.378 2.24229ZM32.378 5.89549C32.2297 5.89704 32.0825 5.86927 31.945 5.81378C31.8075 5.75829 31.6823 5.67616 31.5766 5.57213C31.4709 5.46809 31.3869 5.3442 31.3292 5.20756C31.2716 5.07093 31.2415 4.92425 31.2407 4.77596C31.2372 4.55032 31.3009 4.32874 31.4237 4.13942C31.5466 3.95009 31.7229 3.80159 31.9304 3.7128C32.1378 3.62401 32.367 3.59895 32.5888 3.64081C32.8105 3.68268 33.0148 3.78957 33.1756 3.94788C33.3364 4.1062 33.4465 4.30878 33.4918 4.52984C33.5372 4.75091 33.5157 4.98046 33.4302 5.18929C33.3447 5.39812 33.1989 5.57678 33.0116 5.70254C32.8242 5.82829 32.6036 5.89546 32.378 5.89549Z" fill="#CAAA7A"/>
<path d="M28.3241 20.5083C28.2822 17.5842 27.0979 14.7926 25.0244 12.7305C24.9655 12.6716 24.9066 12.5537 24.7887 12.4948C22.6023 10.3998 19.6851 9.24007 16.6571 9.26208C13.629 9.28409 10.729 10.4861 8.57323 12.6127C7.50106 13.6663 6.64892 14.9225 6.06629 16.3083C5.48366 17.6941 5.18216 19.1818 5.17929 20.685C5.20884 23.7175 6.43664 26.6151 8.59476 28.7457C10.7529 30.8762 13.6661 32.0666 16.6987 32.0571C19.6969 32.044 22.5766 30.8845 24.7475 28.8164C24.8528 28.7701 24.9369 28.686 24.9832 28.5807C27.0341 26.5049 28.209 23.7204 28.2651 20.8029V20.685C28.383 20.5672 28.383 20.5083 28.3241 20.5083ZM25.7609 21.3921H26.8333C26.6781 23.5077 25.836 25.5146 24.4352 27.1076L23.6633 26.3416C23.5209 26.1998 23.3281 26.1203 23.1271 26.1203C22.9261 26.1203 22.7333 26.1998 22.5909 26.3416C22.5196 26.4103 22.4629 26.4927 22.4242 26.5838C22.3855 26.6749 22.3655 26.7729 22.3655 26.8719C22.3655 26.9709 22.3855 27.0689 22.4242 27.16C22.4629 27.2511 22.5196 27.3335 22.5909 27.4022L23.3628 28.1682C21.7306 29.5779 19.6771 30.4068 17.5236 30.5251V29.4645C17.5066 29.2707 17.4177 29.0902 17.2743 28.9588C17.1308 28.8273 16.9433 28.7544 16.7487 28.7544C16.5542 28.7544 16.3667 28.8273 16.2232 28.9588C16.0798 29.0902 15.9908 29.2707 15.9739 29.4645V30.5251C13.844 30.3806 11.8173 29.5542 10.1936 28.1682L10.9655 27.4022C11.0368 27.3335 11.0935 27.2511 11.1322 27.16C11.1709 27.0689 11.1909 26.9709 11.1909 26.8719C11.1909 26.7729 11.1709 26.6749 11.1322 26.5838C11.0935 26.4927 11.0368 26.4103 10.9655 26.3416C10.823 26.1998 10.6303 26.1203 10.4293 26.1203C10.2283 26.1203 10.0355 26.1998 9.8931 26.3416L9.25084 27.1076C7.84942 25.5188 7.01976 23.5069 6.89394 21.3921H7.93687C8.14002 21.3921 8.33485 21.3114 8.47851 21.1678C8.62216 21.0241 8.70286 20.8293 8.70286 20.6261C8.70286 20.423 8.62216 20.2281 8.47851 20.0845C8.33485 19.9408 8.14002 19.8601 7.93687 19.8601H6.86448C7.03507 17.7394 7.89371 15.7325 9.30976 14.1446L10.0816 14.9106C10.2241 15.0524 10.4169 15.132 10.6178 15.132C10.8188 15.132 11.0116 15.0524 11.154 14.9106C11.2253 14.8419 11.282 14.7596 11.3207 14.6684C11.3595 14.5773 11.3794 14.4793 11.3794 14.3803C11.3794 14.2813 11.3595 14.1833 11.3207 14.0922C11.282 14.0011 11.2253 13.9187 11.154 13.85L10.3822 13.084C11.9979 11.6851 14.0292 10.8569 16.1625 10.7271V11.7877C16.1794 11.9816 16.2683 12.162 16.4118 12.2935C16.5552 12.425 16.7427 12.4979 16.9373 12.4979C17.1319 12.4979 17.3194 12.425 17.4628 12.2935C17.6062 12.162 17.6952 11.9816 17.7121 11.7877V10.7271C19.8476 10.8937 21.8735 11.7404 23.4924 13.143L22.7205 13.909C22.6493 13.9777 22.5926 14.06 22.5538 14.1511C22.5151 14.2423 22.4951 14.3403 22.4951 14.4393C22.4951 14.5383 22.5151 14.6362 22.5538 14.7274C22.5926 14.8185 22.6493 14.9009 22.7205 14.9696C22.863 15.1113 23.0558 15.1909 23.2567 15.1909C23.4577 15.1909 23.6505 15.1113 23.7929 14.9696L24.5648 14.2036C25.9662 15.7923 26.7959 17.8043 26.9217 19.9191H25.8788C25.675 19.9205 25.4798 20.0013 25.3346 20.1444C25.1894 20.2874 25.1056 20.4813 25.101 20.685C25.0917 20.7762 25.102 20.8683 25.1312 20.9551C25.1605 21.0419 25.2079 21.1215 25.2704 21.1884C25.3329 21.2554 25.409 21.3082 25.4936 21.3434C25.5782 21.3785 25.6694 21.3951 25.7609 21.3921Z" fill="#CAAA7A"/>
<path d="M2.99326 5.18842H0.0117798V6.66148H2.99326V5.18842Z" fill="#CAAA7A"/>
<path d="M5.97477 3.71535H2.99329V5.18841H5.97477V3.71535Z" fill="#CAAA7A"/>
<path d="M5.97477 6.66148H2.99329V8.13454H5.97477V6.66148Z" fill="#CAAA7A"/>
<path d="M2.99326 2.24229H0.0117798V3.71535H2.99326V2.24229Z" fill="#CAAA7A"/>
<path d="M5.97477 0.769226H2.99329V2.24229H5.97477V0.769226Z" fill="#CAAA7A"/>
</svg>
