<svg width="50" height="51" viewBox="0 0 50 51" fill="none" xmlns="http://www.w3.org/2000/svg">
<path d="M47.9649 28.6526L47.4548 28.6096C47.0737 28.5775 46.745 28.4886 46.4686 28.3427C46.196 28.2012 45.9896 28.0101 45.8493 27.7694C45.7131 27.5291 45.6589 27.2466 45.6868 26.922C45.715 26.5933 45.8168 26.322 45.992 26.1078C46.1713 25.8941 46.4074 25.7403 46.7002 25.6464C46.9971 25.5529 47.3362 25.5222 47.7172 25.5543L48.2274 25.5973C48.6084 25.6293 48.9353 25.7161 49.2079 25.8576C49.4846 25.9994 49.6911 26.1905 49.8272 26.4309C49.9634 26.6712 50.0174 26.9557 49.9892 27.2844C49.9613 27.609 49.8597 27.8783 49.6845 28.0925C49.5093 28.3066 49.2732 28.4604 48.9763 28.5539C48.6831 28.6518 48.346 28.6847 47.9649 28.6526ZM48.3104 28.2342C48.8103 28.2763 49.1769 28.2132 49.4101 28.0448C49.6432 27.8765 49.7748 27.6178 49.8048 27.2689C49.8345 26.9239 49.7489 26.647 49.548 26.438C49.3469 26.2331 48.9964 26.1095 48.4965 26.0674L47.3717 25.9727C46.8759 25.931 46.5094 25.9941 46.2721 26.1621C46.0345 26.3342 45.9008 26.5927 45.8712 26.9375C45.8412 27.2865 45.9289 27.5636 46.1341 27.7689C46.3393 27.9742 46.6898 28.0977 47.1856 28.1394L48.3104 28.2342Z" fill="black"/>
<path d="M44.9168 31.9239L44.7734 31.8872L44.979 31.1007L45.4329 31.217C45.2816 31.0478 45.1868 30.8742 45.1484 30.6961C45.11 30.518 45.114 30.3403 45.1604 30.1628C45.251 29.8159 45.4475 29.5844 45.7497 29.4684C46.0519 29.3524 46.4319 29.353 46.8897 29.4703L47.0092 29.5009C47.455 29.6152 47.782 29.8105 47.9902 30.0868C48.1973 30.367 48.2514 30.6964 48.1525 31.0748C48.0721 31.3823 47.8962 31.6085 47.6247 31.7535L48.9325 32.0886C49.0718 32.1243 49.155 32.1394 49.182 32.1336C49.2129 32.129 49.2386 32.0956 49.2591 32.0335L49.374 31.716L49.5232 31.7542L49.3115 32.5644L45.3642 31.5527C45.2248 31.517 45.1417 31.502 45.1147 31.5077C45.0878 31.5135 45.062 31.5468 45.0376 31.6078L44.9168 31.9239ZM46.6054 29.8266C46.2273 29.7296 45.9351 29.7178 45.729 29.7912C45.5219 29.8685 45.39 30.0156 45.3333 30.2324C45.2973 30.3704 45.2995 30.5245 45.3399 30.6947C45.3794 30.8689 45.5 31.0575 45.7018 31.2606L47.3201 31.6754C47.6711 31.5677 47.8889 31.3522 47.9733 31.0289C48.0455 30.7529 48.001 30.5249 47.8399 30.3448C47.6778 30.1687 47.4256 30.0367 47.0832 29.9489L46.6054 29.8266Z" fill="black"/>
<path d="M44.5172 34.1329C44.3242 33.986 44.1964 33.8366 44.1339 33.6845C44.0738 33.5378 44.0812 33.3718 44.1562 33.1866C44.2251 33.0165 44.3191 32.8937 44.4383 32.8182C44.5598 32.748 44.6916 32.7126 44.8336 32.7119C44.9741 32.7151 45.1092 32.7425 45.2391 32.794L46.8364 33.4284C46.9699 33.4815 47.0505 33.5069 47.078 33.5046C47.1077 33.5077 47.1376 33.4778 47.1674 33.4151L47.3223 33.1147L47.4654 33.1715L47.2886 33.6081L48.1016 33.9309L48.0325 34.2984L47.1508 33.9482L46.7719 34.8836L46.6002 34.8154L46.9791 33.88L45.1012 33.1342C44.8646 33.0402 44.6867 33.009 44.5676 33.0406C44.4522 33.0738 44.3701 33.1508 44.3211 33.2718C44.272 33.3928 44.2792 33.5009 44.3425 33.5962C44.4058 33.6916 44.523 33.7907 44.6939 33.8937L44.5172 34.1329Z" fill="black"/>
<path d="M44.1287 38.7542L42.2734 36.8493L42.425 36.5973L45.097 37.1924L43.2931 35.1542L43.4447 34.9023L46.0165 35.6161C46.1267 35.6478 46.1958 35.6602 46.224 35.6531C46.2536 35.6516 46.2871 35.624 46.3242 35.5701L46.5055 35.3286L46.6379 35.4067L46.0034 36.4615L45.8709 36.3834L45.9991 36.1106C46.0292 36.0525 46.0358 36.0137 46.0188 35.9943C46.0033 35.9803 45.9404 35.9575 45.8303 35.9257L43.6956 35.3206L45.4793 37.3326L45.3246 37.5898L42.6801 36.9967L44.2392 38.5706C44.3178 38.6548 44.3679 38.6987 44.3898 38.7021C44.4152 38.7076 44.4465 38.6834 44.4838 38.6295L44.6649 38.388L44.7974 38.4662L44.2418 39.3898L44.1093 39.3116L44.2375 39.0389C44.2655 38.9843 44.2732 38.9438 44.2604 38.9172C44.2511 38.8928 44.2072 38.8385 44.1287 38.7542Z" fill="black"/>
<path d="M41.0235 40.8597L40.9302 40.7799C40.5848 40.4843 40.3819 40.1626 40.3213 39.8147C40.2612 39.4726 40.3642 39.149 40.6304 38.844C40.8993 38.5359 41.209 38.3865 41.5596 38.3959C41.9132 38.4079 42.2628 38.5617 42.6081 38.8573L42.7015 38.9372C43.0437 39.2301 43.2449 39.5476 43.3051 39.8897C43.3683 40.2345 43.2655 40.5609 42.9966 40.869C42.7277 41.1772 42.4164 41.3252 42.0628 41.3131C41.7122 41.3038 41.3658 41.1527 41.0235 40.8597ZM41.3911 40.6254C41.7147 40.9023 41.9934 41.0439 42.2271 41.0501C42.4639 41.0591 42.6737 40.9587 42.8566 40.7492C43.0367 40.5428 43.1066 40.3226 43.0661 40.0888C43.0259 39.8608 42.8441 39.6082 42.5205 39.3313L42.2405 39.0917C41.92 38.8174 41.6398 38.6745 41.3999 38.6629C41.1604 38.6571 40.9505 38.7574 40.7704 38.9638C40.5876 39.1733 40.5178 39.3935 40.5609 39.6242C40.6073 39.8576 40.7907 40.1114 41.1112 40.3857L41.3911 40.6254ZM43.3833 41.192L43.5486 41.18C43.5818 41.3538 43.6264 41.505 43.6826 41.6337C43.736 41.7656 43.8168 41.9128 43.925 42.0753L43.6184 42.4266C43.4899 42.0259 43.4114 41.6143 43.3833 41.192Z" fill="black"/>
<path d="M41.3869 42.28L41.4895 42.3941L40.8766 42.9342L40.5567 42.5782C40.5685 42.8241 40.548 43.0248 40.4951 43.1804C40.445 43.339 40.3677 43.4644 40.2633 43.5565C40.0513 43.7432 39.7915 43.7787 39.4837 43.6629L39.5701 43.3088C39.7094 43.3659 39.8274 43.39 39.9241 43.3811C40.0176 43.375 40.1043 43.3367 40.1843 43.2663C40.2702 43.1905 40.3286 43.09 40.3592 42.9649C40.3926 42.8428 40.3963 42.657 40.3701 42.4074L39.185 41.0887C39.0893 40.9823 39.0273 40.9224 38.999 40.9092C38.9733 40.8991 38.9346 40.9142 38.8827 40.9545L38.5166 41.2362L38.4141 41.1221L39.4923 40.1719L39.5948 40.286L39.3619 40.5321C39.3182 40.5815 39.3 40.6194 39.3072 40.6458C39.3143 40.6722 39.3658 40.7386 39.4615 40.8451L40.8107 42.3463C40.9064 42.4527 40.967 42.511 40.9927 42.5212C41.021 42.5343 41.0611 42.5208 41.113 42.4805L41.3869 42.28Z" fill="black"/>
<path d="M36.4056 43.6488L36.2789 43.7359L35.7969 43.0485L37.6057 41.8047L37.6937 41.9301L37.8051 45.0662L38.6259 44.5017C38.7036 44.4483 38.7569 44.4066 38.786 44.3767C38.8174 44.3502 38.8329 44.3222 38.8323 44.2928C38.8307 44.2692 38.8226 44.2326 38.808 44.1832L38.6598 43.6827L38.7865 43.5956L39.2685 44.283L37.561 45.4571L37.473 45.3316L37.3617 42.1956L36.4395 42.8297C36.3584 42.8854 36.3039 42.9254 36.2759 42.9497C36.2467 42.9796 36.2342 43.0081 36.2381 43.0351C36.2387 43.0645 36.2451 43.1022 36.2574 43.1483L36.4056 43.6488Z" fill="black"/>
<path d="M31.5712 47.7774L31.2838 45.1462L31.5595 45.0391L33.3028 47.1307L33.1386 44.4254L33.4142 44.3184L35.005 46.443C35.0724 46.535 35.1193 46.5867 35.146 46.5982C35.1703 46.615 35.2138 46.6134 35.2766 46.5934L35.5692 46.5125L35.6256 46.6546L34.4714 47.1031L34.415 46.961L34.6852 46.8232C34.7449 46.7956 34.7741 46.769 34.7728 46.7433C34.769 46.7228 34.7335 46.6666 34.6662 46.5747L33.3537 44.8012L33.5182 47.4736L33.2368 47.5829L31.514 45.5095L31.7722 47.6993C31.7821 47.8136 31.7946 47.8787 31.8098 47.8947C31.8265 47.9144 31.8662 47.9143 31.9289 47.8943L32.2216 47.8134L32.2779 47.9555L31.2673 48.3483L31.2109 48.2061L31.481 48.0683C31.537 48.0423 31.568 48.0149 31.5744 47.9861C31.5822 47.9613 31.5811 47.8916 31.5712 47.7774Z" fill="black"/>
<path d="M30.3304 49.2937C30.4064 49.276 30.4766 49.2869 30.5408 49.3263C30.6051 49.3658 30.6467 49.4252 30.6654 49.5045C30.6842 49.5838 30.6732 49.6532 30.6324 49.7129C30.5926 49.7765 30.5347 49.8172 30.4586 49.8349C30.3785 49.8535 30.3063 49.843 30.2421 49.8035C30.1788 49.7681 30.1377 49.7107 30.1189 49.6314C30.1002 49.5521 30.1107 49.4806 30.1505 49.417C30.1903 49.3534 30.2503 49.3123 30.3304 49.2937ZM30.7486 48.224L30.7838 48.3727L29.9611 48.5638L29.3862 46.1375C29.3533 45.9987 29.3281 45.9188 29.3104 45.8978C29.2928 45.8769 29.251 45.8698 29.1851 45.8768L28.8477 45.9238L28.8125 45.7751L30.0977 45.4766L30.1329 45.6252L29.8096 45.7317C29.7474 45.7545 29.7132 45.7792 29.7068 45.8058C29.7004 45.8323 29.7137 45.915 29.7466 46.0538L30.2101 48.0103C30.2429 48.1491 30.2682 48.229 30.2858 48.2499C30.3044 48.2749 30.3462 48.2819 30.4112 48.271L30.7486 48.224Z" fill="black"/>
<path d="M25.4853 46.3602L25.4688 46.2145L26.284 46.1239L26.3363 46.5852C26.4419 46.385 26.5719 46.2353 26.7261 46.1362C26.8804 46.0371 27.0495 45.9773 27.2334 45.9569C27.593 45.9169 27.8815 46.016 28.0989 46.2541C28.3162 46.4922 28.4512 46.8439 28.504 47.3093L28.5178 47.4307C28.5692 47.884 28.5017 48.2561 28.3154 48.5473C28.125 48.839 27.8336 49.0065 27.4413 49.0502C27.1225 49.0856 26.8463 49.0036 26.6127 48.8042L26.7634 50.1336C26.7794 50.2753 26.795 50.3575 26.81 50.3804C26.8254 50.4074 26.8661 50.4193 26.932 50.416L27.2726 50.4089L27.2897 50.5606L26.4499 50.654L25.9951 46.6416C25.9791 46.4999 25.9635 46.4177 25.9485 46.3947C25.9335 46.3718 25.8928 46.36 25.8265 46.3591L25.4853 46.3602ZM28.0665 47.1735C28.0229 46.7891 27.9298 46.5146 27.787 46.3502C27.6401 46.1862 27.4543 46.1167 27.2295 46.1417C27.0865 46.1576 26.9419 46.2147 26.7958 46.3128C26.6456 46.4115 26.5107 46.5904 26.3911 46.8496L26.5776 48.4946C26.8045 48.7808 27.0856 48.9053 27.4207 48.8681C27.7067 48.8363 27.906 48.7137 28.0183 48.5004C28.1266 48.2876 28.161 48.0072 28.1216 47.6592L28.0665 47.1735Z" fill="black"/>
<path d="M22.5709 46.7941C22.6555 46.5243 22.8027 46.3384 23.0124 46.2364C23.218 46.1342 23.44 46.0877 23.6784 46.0968C24.1057 46.1132 24.421 46.2597 24.6242 46.5365C24.8231 46.8171 24.9138 47.1832 24.8962 47.6349L24.8914 47.757C24.874 48.2047 24.7573 48.5588 24.5413 48.8195C24.3212 49.0842 24.0117 49.2088 23.6132 49.1936C23.4036 49.1856 23.2121 49.1354 23.0387 49.0433C22.8654 48.951 22.7286 48.8174 22.6284 48.6424C22.5282 48.4674 22.4833 48.2477 22.4936 47.9832C22.4981 47.8692 22.5152 47.7456 22.5451 47.6123L24.4744 47.686L24.4818 47.4969C24.4982 47.0777 24.4422 46.7719 24.3139 46.5796C24.1813 46.3911 23.9568 46.2909 23.6404 46.2788C23.439 46.2711 23.2729 46.3116 23.1418 46.4003C23.0108 46.489 22.9139 46.6504 22.8513 46.8843L22.5709 46.7941ZM23.6203 49.0105C23.8915 49.0208 24.0964 48.937 24.2351 48.7589C24.3736 48.5849 24.451 48.2883 24.4673 47.8692L22.9017 47.8093C22.8957 47.858 22.892 47.9006 22.8905 47.9373C22.8848 47.9778 22.8813 48.0143 22.8801 48.0469C22.8671 48.3806 22.9297 48.6213 23.068 48.7693C23.2061 48.9213 23.3902 49.0017 23.6203 49.0105Z" fill="black"/>
<path d="M19.1583 47.1168L19.181 46.9967C19.2648 46.5524 19.4432 46.2167 19.7161 45.9896C19.9842 45.7658 20.3184 45.6909 20.7185 45.7649C21.1228 45.8397 21.4091 46.0293 21.5776 46.3339C21.7453 46.6425 21.7872 47.0189 21.7034 47.4633L21.6808 47.5834C21.5977 48.0237 21.4221 48.3558 21.154 48.5796C20.8851 48.8074 20.5486 48.884 20.1444 48.8092C19.7401 48.7344 19.4542 48.5428 19.2864 48.2342C19.1179 47.9296 19.0753 47.5571 19.1583 47.1168ZM19.548 47.3132C19.4695 47.7295 19.4864 48.0392 19.5987 48.2422C19.7102 48.4493 19.9035 48.5782 20.1783 48.6291C20.4492 48.6791 20.6764 48.628 20.8599 48.4755C21.0387 48.3263 21.1673 48.0435 21.2458 47.6272L21.3138 47.2669C21.3916 46.8546 21.375 46.5429 21.2642 46.3319C21.1487 46.1241 20.9554 45.9951 20.6846 45.945C20.4097 45.8942 20.1825 45.9454 20.003 46.0986C19.8227 46.2558 19.6937 46.5406 19.6159 46.9529L19.548 47.3132Z" fill="black"/>
<path d="M16.666 46.7592L16.5872 46.9517L15.0781 46.3458L15.1569 46.1533L16.666 46.7592Z" fill="black"/>
<path d="M10.0497 43.6016L10.3387 43.183C10.5546 42.8704 10.7946 42.6308 11.0589 42.4645C11.3175 42.2992 11.5871 42.2153 11.8677 42.2129C12.146 42.2138 12.4209 42.3062 12.6926 42.4901C12.9675 42.6762 13.156 42.8975 13.2579 43.154C13.3576 43.4138 13.3765 43.693 13.3148 43.9916C13.2508 44.2936 13.1109 44.6009 12.895 44.9136L12.6061 45.3321C12.3903 45.6447 12.1531 45.8837 11.8945 46.0491C11.6336 46.2177 11.364 46.3016 11.0857 46.3006C10.8074 46.2997 10.5307 46.2061 10.2557 46.02C9.98417 45.8361 9.79739 45.616 9.69547 45.3595C9.59355 45.1031 9.5746 44.8239 9.63857 44.5219C9.69686 44.221 9.83396 43.9142 10.0497 43.6016ZM10.2475 44.1053C9.96433 44.5155 9.83935 44.8625 9.87247 45.1464C9.90565 45.4303 10.0682 45.6711 10.3602 45.8687C10.6488 46.064 10.9343 46.1266 11.2169 46.0565C11.496 45.984 11.7772 45.7427 12.0603 45.3326L12.6974 44.4098C12.9782 44.003 13.1031 43.656 13.0723 43.3687C13.0381 43.0792 12.8767 42.8367 12.5881 42.6414C12.2962 42.4437 12.0094 42.3828 11.728 42.4587C11.4465 42.5345 11.1653 42.7757 10.8845 43.1825L10.2475 44.1053Z" fill="black"/>
<path d="M8.70326 39.392L8.80568 39.2861L9.3983 39.8479L9.0741 40.1832C9.29699 40.1353 9.49628 40.1381 9.67199 40.1919C9.84771 40.2458 10.0024 40.336 10.1361 40.4627C10.3974 40.7105 10.5055 40.9933 10.4601 41.3111C10.4148 41.6289 10.2286 41.957 9.90156 42.2953L9.8162 42.3835C9.49772 42.713 9.1659 42.9002 8.8208 42.945C8.4727 42.9871 8.15605 42.873 7.87085 42.6027C7.63917 42.383 7.52575 42.1205 7.5307 41.8151L6.59653 42.7814C6.49695 42.8843 6.44315 42.9489 6.43498 42.975C6.42398 43.004 6.44082 43.0426 6.4855 43.0905L6.70923 43.345L6.60259 43.4552L5.99219 42.8765L8.8118 39.9599C8.91132 39.857 8.96512 39.7925 8.97329 39.7664C8.98146 39.7402 8.96462 39.7017 8.92277 39.6508L8.70326 39.392ZM9.72651 41.8757C9.9967 41.5963 10.1497 41.3495 10.1858 41.1356C10.2188 40.9189 10.1536 40.7331 9.99025 40.5782C9.88628 40.4796 9.7494 40.4063 9.57969 40.3581C9.40691 40.3071 9.18179 40.3192 8.90421 40.3943L7.74826 41.59C7.67174 41.946 7.75526 42.2394 7.99883 42.4703C8.20678 42.6674 8.42946 42.7404 8.66681 42.6892C8.90121 42.6352 9.14067 42.4816 9.38524 42.2287L9.72651 41.8757Z" fill="black"/>
<path d="M6.92568 37.9345C7.14964 37.8401 7.34386 37.8032 7.5083 37.8239C7.66701 37.8441 7.80939 37.9319 7.93548 38.0875C8.05135 38.2304 8.1132 38.3719 8.12115 38.5118C8.12331 38.651 8.0898 38.7821 8.02062 38.905C7.94887 39.0246 7.85846 39.1278 7.74943 39.2145L6.40725 40.2812C6.295 40.3704 6.23309 40.4274 6.22159 40.4522C6.2043 40.4764 6.21592 40.5168 6.25643 40.5733L6.44476 40.8545L6.32451 40.95L6.0272 40.5832L5.34405 41.1261L5.05469 40.8862L5.79552 40.2974L5.1585 39.5113L5.30282 39.3967L5.93984 40.1827L7.5178 38.9286C7.71664 38.7706 7.83134 38.6324 7.86201 38.5141C7.88941 38.3983 7.86196 38.2896 7.7796 38.188C7.69724 38.0863 7.5986 38.0394 7.48362 38.0472C7.3687 38.055 7.22394 38.1074 7.04939 38.2044L6.92568 37.9345Z" fill="black"/>
<path d="M3.06903 35.403L5.65185 34.7227L5.80056 34.9762L3.97719 36.9999L6.65253 36.4288L6.80124 36.6823L4.92175 38.5616C4.84022 38.6415 4.79571 38.6954 4.78826 38.7231C4.7752 38.7495 4.78343 38.7919 4.81288 38.8503L4.93803 39.1244L4.80471 39.2011L4.18192 38.1394L4.31529 38.0628L4.49379 38.3062C4.53035 38.3605 4.56142 38.3851 4.58687 38.3798C4.60671 38.3732 4.65745 38.3298 4.73897 38.25L6.31016 36.6963L3.66765 37.2626L3.51583 37.0038L5.32403 35.003L3.17746 35.5878C3.06492 35.6149 3.00185 35.637 2.98818 35.6543C2.97101 35.6736 2.97712 35.7125 3.00663 35.7709L3.13178 36.045L2.9984 36.1217L2.45312 35.1921L2.58648 35.1154L2.76496 35.3589C2.7995 35.4097 2.83156 35.436 2.86114 35.4378C2.8872 35.4416 2.9565 35.43 3.06903 35.403Z" fill="black"/>
<path d="M2.73417 31.6785L2.85016 31.6369C3.27931 31.4828 3.66192 31.4646 3.99802 31.5822C4.3289 31.6974 4.56369 31.9445 4.7024 32.3235C4.84249 32.7064 4.82282 33.047 4.64332 33.3453C4.45994 33.645 4.15368 33.8719 3.7245 34.0259L3.60852 34.0675C3.18323 34.2201 2.80519 34.2389 2.47435 34.1237C2.13965 34.01 1.90223 33.7616 1.76211 33.3788C1.62199 32.9959 1.64361 32.6546 1.82699 32.3549C2.00649 32.0566 2.30889 31.8311 2.73417 31.6785ZM2.76111 32.1106C2.35902 32.2549 2.09814 32.4265 1.97847 32.6254C1.85494 32.8257 1.84081 33.056 1.93609 33.3163C2.02998 33.5728 2.18983 33.7407 2.41566 33.8199C2.63621 33.8967 2.94755 33.8629 3.34961 33.7186L3.6976 33.5938C4.09583 33.4508 4.35863 33.2785 4.486 33.0769C4.60815 32.8728 4.62226 32.6424 4.5284 32.3859C4.43309 32.1256 4.27327 31.9578 4.04882 31.8824C3.82053 31.8084 3.50727 31.8428 3.10909 31.9858L2.76111 32.1106ZM1.28867 33.5552L1.21842 33.7038C1.04913 33.6476 0.894053 33.6124 0.753178 33.5979C0.610909 33.5797 0.441737 33.5776 0.245679 33.5917L0.0859375 33.1552C0.501832 33.2399 0.902739 33.3731 1.28867 33.5552Z" fill="black"/>
<path d="M1.30947 31.3186L1.15882 31.3512L0.983633 30.5576L1.45368 30.4558C1.23148 30.3455 1.06485 30.2294 0.953763 30.1076C0.838663 29.9866 0.76618 29.8584 0.736327 29.7232C0.675731 29.4487 0.77181 29.2069 1.02456 28.998L1.294 29.2461C1.17547 29.3384 1.09643 29.4285 1.05687 29.5163C1.01643 29.6 1.00762 29.6936 1.03046 29.7971C1.05504 29.9085 1.11491 30.0081 1.21006 30.0958C1.30119 30.1845 1.463 30.2787 1.69548 30.3784L3.43704 30.0015C3.57769 29.971 3.66072 29.9468 3.68622 29.9288C3.70767 29.9117 3.7134 29.8708 3.70334 29.8063L3.63471 29.3522L3.78536 29.3196L4.09357 30.716L3.94291 30.7486L3.84032 30.4269C3.81826 30.365 3.79387 30.3307 3.76714 30.3239C3.74035 30.3172 3.65672 30.3291 3.51606 30.3595L1.53347 30.7887C1.39285 30.8191 1.31181 30.8429 1.29034 30.8601C1.26486 30.878 1.25713 30.9193 1.26716 30.9839L1.30947 31.3186Z" fill="black"/>
<path d="M2.53328 26.3241L2.51903 26.1721L3.3605 26.0947L3.564 28.2661L3.41045 28.2802L0.598599 26.8332L0.690954 27.8186C0.699695 27.9118 0.71006 27.9783 0.722047 28.0181C0.729943 28.0583 0.746937 28.0853 0.773023 28.0993C0.79464 28.1096 0.830773 28.1206 0.881433 28.1323L1.39433 28.2508L1.40858 28.4029L0.567118 28.4802L0.375 26.4305L0.528556 26.4164L3.34043 27.8633L3.23668 26.7564C3.22757 26.6591 3.21923 26.5924 3.21173 26.5562C3.19973 26.5164 3.18089 26.4916 3.15516 26.4817C3.12909 26.4677 3.09275 26.4547 3.04618 26.4426L2.53328 26.3241Z" fill="black"/>
<path d="M1.26614 20.1136L3.72258 21.1562L3.68168 21.4466L0.985898 21.9251L3.44717 23.1102L3.40627 23.4006L0.756236 23.7313C0.642286 23.7443 0.57371 23.7595 0.550503 23.7769C0.523796 23.7896 0.503856 23.828 0.490686 23.8919L0.418359 24.1842L0.265625 24.1631L0.437014 22.9471L0.589748 22.9681L0.578512 23.2688C0.573494 23.3339 0.58263 23.3722 0.605931 23.3836C0.625726 23.3905 0.692595 23.3874 0.80654 23.3744L3.01104 23.1116L0.578562 21.9428L0.620346 21.6464L3.29001 21.1766L1.2363 20.3253C1.13088 20.2778 1.06742 20.2567 1.04592 20.262C1.02034 20.2667 1.00097 20.301 0.987804 20.3649L0.915478 20.6571L0.762744 20.6361L0.912816 19.5713L1.06555 19.5924L1.05431 19.8931C1.04986 19.9541 1.05871 19.9944 1.08088 20.014C1.09896 20.0329 1.16072 20.0661 1.26614 20.1136Z" fill="black"/>
<path d="M0.551221 18.2373C0.529359 18.3116 0.485285 18.3668 0.419004 18.4028C0.352724 18.4388 0.280097 18.4454 0.20114 18.4226C0.122178 18.3998 0.0664838 18.3562 0.0340687 18.2917C-0.00229753 18.226 -0.0095498 18.1561 0.0123122 18.0818C0.0353245 18.0036 0.0799711 17.9465 0.146252 17.9105C0.208587 17.8733 0.279235 17.8662 0.358198 17.889C0.43716 17.9118 0.494821 17.9559 0.531193 18.0216C0.567559 18.0873 0.574233 18.1592 0.551221 18.2373ZM1.2862 19.1239L1.13814 19.0812L1.3746 18.2777L3.79082 18.9751C3.92903 19.015 4.01166 19.0324 4.03878 19.0276C4.06596 19.0227 4.09269 18.9901 4.11897 18.9298L4.24351 18.6158L4.39155 18.6585L4.02222 19.9135L3.87418 19.8708L3.93947 19.5397C3.94998 19.4748 3.94514 19.4331 3.92491 19.4146C3.90463 19.396 3.82544 19.3668 3.68729 19.3269L1.73889 18.7646C1.60071 18.7247 1.51804 18.7072 1.4909 18.7121C1.45982 18.7159 1.43309 18.7485 1.41074 18.8099L1.2862 19.1239Z" fill="black"/>
<path d="M5.47261 15.5733L5.60893 15.6304L5.28933 16.3786L4.85759 16.1978C4.98213 16.387 5.05026 16.5725 5.06193 16.7543C5.0736 16.936 5.04337 17.1113 4.97129 17.28C4.83031 17.6101 4.6018 17.8106 4.2857 17.8816C3.96961 17.9526 3.59378 17.8969 3.15826 17.7145L3.04461 17.6669C2.62042 17.4892 2.32579 17.2486 2.16072 16.9451C1.99726 16.6379 1.99242 16.3043 2.14621 15.9442C2.27116 15.6517 2.47864 15.4534 2.76865 15.3494L1.52447 14.8283C1.39191 14.7727 1.31186 14.7458 1.28433 14.7475C1.25301 14.7477 1.22264 14.777 1.19323 14.8354L1.03266 15.1329L0.890625 15.0734L1.21983 14.3027L4.97513 15.8756C5.10767 15.9311 5.18769 15.958 5.21525 15.9563C5.24276 15.9545 5.27316 15.9252 5.30634 15.8684L5.47261 15.5733ZM3.49208 17.4033C3.85191 17.554 4.13916 17.608 4.35383 17.5653C4.57018 17.5188 4.72239 17.3924 4.81047 17.1862C4.86654 17.0549 4.88716 16.9021 4.87226 16.7279C4.85898 16.5499 4.76757 16.3458 4.59802 16.1156L3.0584 15.4707C2.69525 15.5264 2.448 15.708 2.31664 16.0156C2.20451 16.2782 2.2148 16.5102 2.34752 16.7117C2.48184 16.9094 2.71186 17.0765 3.03756 17.213L3.49208 17.4033Z" fill="black"/>
<path d="M6.51454 12.8513C6.71032 13.0567 6.80157 13.275 6.78829 13.506C6.77717 13.7336 6.7091 13.9479 6.584 14.149C6.35977 14.5096 6.07602 14.7096 5.73275 14.749C5.38815 14.7828 5.02154 14.6811 4.63287 14.4441L4.52784 14.3801C4.14262 14.1452 3.88843 13.8706 3.76512 13.5562C3.64047 13.2364 3.68276 12.9082 3.89193 12.5719C4.00191 12.3951 4.14001 12.2545 4.30628 12.1502C4.47255 12.046 4.65721 11.9936 4.86039 11.9932C5.0635 11.9927 5.27884 12.0618 5.50647 12.2006C5.60449 12.2604 5.70486 12.336 5.80744 12.4272L4.79503 14.0552L4.95786 14.1545C5.31852 14.3744 5.615 14.4763 5.84723 14.4601C6.07813 14.4383 6.27658 14.2939 6.44263 14.0269C6.54827 13.857 6.59428 13.6938 6.58056 13.5372C6.56689 13.3805 6.47253 13.2178 6.29742 13.0489L6.51454 12.8513ZM4.04948 12.6679C3.90716 12.8968 3.88032 13.1148 3.96885 13.3218C4.05393 13.5268 4.27682 13.7392 4.63749 13.9591L5.45906 12.638C5.41916 12.6089 5.38348 12.5847 5.35197 12.5655C5.31913 12.5407 5.28868 12.5198 5.26067 12.5027C4.97353 12.3276 4.73096 12.2634 4.53296 12.31C4.3314 12.3544 4.17024 12.4738 4.04948 12.6679Z" fill="black"/>
<path d="M7.83984 9.80685L7.93465 9.88505C8.28536 10.1743 8.4942 10.4923 8.56116 10.8391C8.62757 11.18 8.53054 11.5054 8.26997 11.8152C8.00678 12.1281 7.69986 12.283 7.34914 12.2799C6.99531 12.2743 6.64304 12.1268 6.29233 11.8375L6.19752 11.7593C5.84998 11.4726 5.64297 11.1588 5.57651 10.8178C5.50693 10.4742 5.60374 10.146 5.86698 9.8331C6.13017 9.5202 6.43865 9.36655 6.79248 9.37222C7.14314 9.3753 7.49229 9.52014 7.83984 9.80685ZM7.47662 10.0478C7.14797 9.77675 6.86678 9.64022 6.63299 9.63818C6.39608 9.63356 6.18813 9.73762 6.00914 9.95037C5.83281 10.16 5.76706 10.3814 5.81186 10.6144C5.85615 10.8418 6.04259 11.0909 6.37119 11.362L6.65555 11.5965C6.98103 11.865 7.26378 12.0028 7.50391 12.0101C7.74348 12.0116 7.95143 11.9075 8.12776 11.6979C8.30676 11.4851 8.3725 11.2638 8.32504 11.0339C8.27447 10.8013 8.08641 10.5508 7.76098 10.2824L7.47662 10.0478Z" fill="black"/>
<path d="M9.4047 7.78363L9.27344 7.62167L10.5435 6.6123L10.6747 6.77431L9.4047 7.78363Z" fill="black"/>
<path d="M15.3816 3.60199L15.6104 4.05553C15.7814 4.39429 15.876 4.71848 15.8943 5.02808C15.9145 5.33223 15.8574 5.60628 15.7231 5.85029C15.5869 6.09066 15.3717 6.28365 15.0774 6.42926C14.7795 6.57669 14.4925 6.63221 14.2167 6.59567C13.939 6.55555 13.6834 6.43619 13.4498 6.23764C13.2145 6.03546 13.0114 5.76493 12.8404 5.42617L12.6115 4.97266C12.4406 4.63384 12.3451 4.31241 12.3249 4.00825C12.3029 3.70047 12.36 3.42641 12.4961 3.18606C12.6323 2.9457 12.8493 2.7518 13.1473 2.60435C13.4416 2.45873 13.7267 2.40416 14.0026 2.44065C14.2784 2.47715 14.534 2.5965 14.7693 2.7987C15.0065 2.99545 15.2106 3.26321 15.3816 3.60199ZM14.8409 3.5281C14.6166 3.08368 14.3712 2.8068 14.1045 2.69747C13.8379 2.58813 13.5464 2.61173 13.2301 2.76828C12.9174 2.923 12.7233 3.13967 12.6478 3.41829C12.576 3.69508 12.6523 4.05569 12.8765 4.50012L13.3811 5.50007C13.6035 5.94081 13.849 6.21772 14.1174 6.3307C14.3896 6.44186 14.682 6.42007 14.9947 6.26533C15.3111 6.10882 15.5042 5.89029 15.5742 5.60986C15.6441 5.32942 15.5679 4.96881 15.3455 4.52802L14.8409 3.5281Z" fill="black"/>
<path d="M19.7885 4.47188L19.8316 4.61216L19.0466 4.84829L18.9103 4.40409C18.8434 4.62002 18.7431 4.79062 18.6096 4.91592C18.4761 5.04117 18.3209 5.13043 18.1438 5.1837C17.7976 5.28787 17.4957 5.24247 17.2382 5.04756C16.9807 4.85264 16.7832 4.53115 16.6457 4.08309L16.6099 3.96615C16.4759 3.52978 16.4738 3.15163 16.6035 2.83173C16.7371 2.51065 16.9928 2.29329 17.3705 2.17965C17.6774 2.08732 17.9641 2.11812 18.2305 2.27206L17.8378 0.992088C17.7959 0.855712 17.7655 0.777613 17.7466 0.757786C17.7264 0.734062 17.6842 0.72972 17.6201 0.744765L17.2865 0.813195L17.2417 0.667079L18.0503 0.423828L19.2355 4.28715C19.2773 4.42351 19.3077 4.5016 19.3267 4.52141C19.3457 4.54128 19.3879 4.54557 19.4532 4.53445L19.7885 4.47188ZM17.1009 4.13768C17.2144 4.50782 17.3565 4.76085 17.5271 4.89683C17.7017 5.03154 17.8972 5.06638 18.1136 5.00128C18.2514 4.95984 18.383 4.87768 18.5086 4.75474C18.6381 4.63065 18.7379 4.43045 18.8079 4.15403L18.3219 2.57013C18.0461 2.32964 17.7469 2.25792 17.4243 2.35499C17.1489 2.43785 16.9755 2.59427 16.9042 2.82426C16.8369 3.05306 16.8546 3.33501 16.9574 3.67009L17.1009 4.13768Z" fill="black"/>
<path d="M21.8782 3.65785C21.8519 3.8975 21.7894 4.08334 21.6908 4.21525C21.5955 4.34248 21.4485 4.42255 21.2497 4.4554C21.0672 4.48561 20.9124 4.46993 20.7853 4.40841C20.6615 4.34215 20.5624 4.24915 20.488 4.12935C20.4177 4.00883 20.371 3.88033 20.3479 3.74375L20.0644 2.06281C20.0407 1.92223 20.0207 1.8409 20.0045 1.81882C19.9916 1.79204 19.9504 1.78235 19.8807 1.78974L19.541 1.81497L19.5156 1.66435L19.9841 1.58685L19.8398 0.731316L20.1927 0.598633L20.3491 1.52647L21.3531 1.36041L21.3835 1.54115L20.3797 1.70721L20.713 3.68338C20.755 3.93239 20.8206 4.09908 20.9099 4.18339C20.9985 4.26373 21.1077 4.29312 21.2375 4.27166C21.3673 4.25019 21.4569 4.1879 21.5062 4.08477C21.5555 3.98165 21.5801 3.83103 21.58 3.63285L21.8782 3.65785Z" fill="black"/>
<path d="M26.0915 1.56187L25.4182 4.12308L25.1222 4.12644L24.2408 1.55866L23.4259 4.14592L23.1299 4.14933L22.403 1.60417C22.3729 1.49456 22.3475 1.4297 22.3267 1.40957C22.3099 1.38532 22.2687 1.37154 22.2029 1.36823L21.9003 1.34115L21.8984 1.18845L23.1382 1.17424L23.14 1.32694L22.8382 1.36094C22.7724 1.36577 22.7356 1.38044 22.7276 1.40497C22.7237 1.42538 22.7369 1.49039 22.7669 1.6L23.3593 3.71905L24.1622 1.1625L24.4644 1.15903L25.3331 3.70254L25.8756 1.56435C25.9072 1.45403 25.9188 1.38874 25.9103 1.36847C25.9018 1.34413 25.8647 1.3303 25.7988 1.32699L25.4962 1.29992L25.4944 1.14722L26.58 1.13477L26.5818 1.28746L26.28 1.32147C26.2183 1.32625 26.1794 1.34095 26.1632 1.36557C26.147 1.38612 26.1231 1.45155 26.0915 1.56187Z" fill="black"/>
<path d="M29.5542 3.08611L29.5339 3.2066C29.4587 3.65245 29.2868 3.99147 29.0183 4.2237C28.7546 4.45257 28.4219 4.53374 28.0204 4.46732C27.6148 4.40024 27.3248 4.21605 27.1505 3.9147C26.9769 3.60937 26.9276 3.23378 27.0028 2.78793L27.0232 2.66744C27.0977 2.22561 27.2669 1.89026 27.5306 1.6614C27.795 1.42852 28.13 1.34563 28.5357 1.41272C28.9413 1.47982 29.2309 1.66604 29.4045 1.97138C29.5788 2.2727 29.6287 2.64428 29.5542 3.08611ZM29.1608 2.89717C29.2313 2.47945 29.2084 2.17014 29.0922 1.96926C28.9766 1.76436 28.781 1.6391 28.5052 1.59347C28.2334 1.54852 28.0072 1.604 27.8267 1.75992C27.6509 1.9125 27.5277 2.19765 27.4572 2.61537L27.3962 2.97687C27.3265 3.39057 27.349 3.7019 27.4639 3.9108C27.5834 4.11639 27.7791 4.24164 28.0509 4.2866C28.3267 4.33222 28.5528 4.27675 28.7293 4.12013C28.9066 3.95955 29.03 3.67235 29.0998 3.25867L29.1608 2.89717ZM28.6129 0.917675L28.5166 0.784078C28.6491 0.665631 28.7563 0.549181 28.8382 0.434734C28.9241 0.320953 29.009 0.176042 29.0929 0L29.5553 0.0764922C29.2767 0.39372 28.9625 0.674116 28.6129 0.917675Z" fill="black"/>
<path d="M30.6043 2.03071L30.6497 1.88477L31.4338 2.12385L31.2922 2.5792C31.4984 2.44183 31.6824 2.35519 31.8442 2.3193C32.0071 2.27951 32.1554 2.27999 32.289 2.32074C32.5602 2.40343 32.7256 2.60511 32.7851 2.92577L32.4345 3.03618C32.4115 2.88857 32.3712 2.77614 32.3135 2.69888C32.2597 2.62282 32.1817 2.56922 32.0795 2.53806C31.9694 2.5045 31.8524 2.50717 31.7285 2.54607C31.6057 2.58107 31.4433 2.6743 31.2413 2.82575L30.7167 4.51287C30.6743 4.64912 30.6548 4.73266 30.6582 4.76347C30.6627 4.79044 30.6958 4.81542 30.7574 4.83848L31.1905 5.00253L31.1451 5.14847L29.7656 4.72782L29.811 4.58187L30.1443 4.65154C30.2096 4.66293 30.2518 4.65875 30.2709 4.639C30.2899 4.61924 30.3206 4.54126 30.363 4.40501L30.9602 2.48438C31.0026 2.34816 31.0215 2.26658 31.0169 2.23963C31.0137 2.20879 30.9811 2.18184 30.9195 2.15877L30.6043 2.03071Z" fill="black"/>
<path d="M34.3162 5.50598L34.4571 5.56805L34.1134 6.33259L32.1016 5.44577L32.1643 5.30627L34.8146 3.58607L33.9016 3.18365C33.8152 3.14556 33.7516 3.12196 33.7106 3.11284C33.6714 3.1 33.6393 3.10143 33.6142 3.11713C33.5946 3.13076 33.5672 3.15659 33.5321 3.1946L33.1768 3.57956L33.0359 3.51746L33.3796 2.75293L35.2787 3.59005L35.216 3.72954L32.5656 5.44979L33.5913 5.90187C33.6815 5.9416 33.7443 5.96708 33.7798 5.97825C33.8207 5.98738 33.8518 5.98326 33.8731 5.96592C33.8981 5.95018 33.9274 5.9252 33.9608 5.89091L34.3162 5.50598Z" fill="black"/>
<path d="M40.4978 7.52121L38.3703 9.12309L38.1354 8.94463L39.0446 6.38632L36.7896 7.92211L36.5547 7.74359L37.5712 5.29771C37.6159 5.1931 37.6364 5.12651 37.6326 5.098C37.6346 5.06867 37.6107 5.03257 37.561 4.9897L37.34 4.78329L37.4338 4.66211L38.4176 5.40948L38.3237 5.53065L38.0651 5.37266C38.0104 5.33623 37.9723 5.32522 37.9507 5.33964C37.9349 5.35335 37.9047 5.4125 37.8599 5.51706L37.0035 7.54564L39.23 6.0267L39.4698 6.2089L38.5658 8.74035L40.3265 7.39106C40.4202 7.32365 40.4701 7.27941 40.476 7.25828C40.4845 7.23395 40.4639 7.20033 40.4142 7.15746L40.1932 6.95099L40.2871 6.82986L41.1484 7.48429L41.0545 7.60541L40.7959 7.44747C40.7445 7.41352 40.7047 7.40124 40.6767 7.41071C40.6511 7.41698 40.5915 7.4538 40.4978 7.52121Z" fill="black"/>
<path d="M42.3728 7.70147C42.3179 7.64633 42.2908 7.5814 42.2914 7.5065C42.2919 7.43166 42.3215 7.36562 42.3801 7.30845C42.4386 7.25127 42.5043 7.22442 42.5769 7.22783C42.6525 7.22832 42.7178 7.25617 42.7726 7.31125C42.8303 7.36931 42.8589 7.43573 42.8584 7.51057C42.8608 7.58261 42.8326 7.64716 42.7741 7.70434C42.7155 7.76151 42.6484 7.78985 42.5728 7.7893C42.4972 7.78875 42.4305 7.75948 42.3728 7.70147ZM41.2328 7.90492L41.3427 7.79772L41.9359 8.39376L40.1434 10.1432C40.0409 10.2432 39.9852 10.3062 39.9762 10.332C39.9673 10.3578 39.9831 10.3969 40.0234 10.449L40.2395 10.7097L40.1297 10.8169L39.2031 9.88585L39.3129 9.77865L39.5731 9.99651C39.6251 10.0372 39.6643 10.0533 39.6905 10.0449C39.7167 10.0364 39.7811 9.98215 39.8836 9.88211L41.329 8.47146C41.4315 8.37141 41.4872 8.30846 41.4961 8.28259C41.508 8.25387 41.4923 8.21491 41.449 8.16566L41.2328 7.90492Z" fill="black"/>
<path d="M42.4357 13.3946L42.3185 13.4843L41.8168 12.8415L42.1876 12.5576C41.96 12.5723 41.7634 12.5401 41.5977 12.4611C41.432 12.382 41.2926 12.27 41.1794 12.125C40.9581 11.8415 40.8937 11.546 40.9862 11.2383C41.0788 10.9307 41.3121 10.6337 41.6863 10.3473L41.7839 10.2726C42.1482 9.99366 42.5045 9.85735 42.8525 9.86374C43.2031 9.87331 43.499 10.0328 43.7405 10.3421C43.9367 10.5934 44.0094 10.8697 43.9588 11.171L45.0275 10.3528C45.1414 10.2656 45.2043 10.2098 45.2163 10.1851C45.2315 10.158 45.2207 10.1175 45.1837 10.0634L45.0006 9.77893L45.1226 9.68555L45.6394 10.3476L42.4135 12.817C42.2997 12.9042 42.2368 12.9601 42.2248 12.9847C42.2128 13.0093 42.2237 13.0499 42.2574 13.1065L42.4357 13.3946ZM41.7964 10.788C41.4873 11.0246 41.2989 11.246 41.2312 11.4523C41.166 11.6617 41.2026 11.8551 41.3409 12.0323C41.4289 12.145 41.5533 12.2377 41.714 12.3103C41.8771 12.3862 42.1016 12.4073 42.3873 12.3739L43.7099 11.3615C43.8389 11.0208 43.8003 10.7184 43.5941 10.4542C43.418 10.2286 43.2088 10.1237 42.9664 10.1394C42.7265 10.1584 42.4666 10.2749 42.1868 10.4892L41.7964 10.788Z" fill="black"/>
<path d="M44.2624 15.5017C43.9859 15.5713 43.749 15.5443 43.5515 15.4206C43.356 15.3004 43.1999 15.1373 43.0832 14.9313C42.8738 14.562 42.8352 14.2193 42.9672 13.903C43.1048 13.5884 43.3726 13.3204 43.7707 13.0992L43.8783 13.0394C44.2727 12.8202 44.6386 12.7335 44.976 12.7795C45.3189 12.8271 45.588 13.0231 45.7832 13.3675C45.8859 13.5487 45.9428 13.7365 45.9541 13.9311C45.9653 14.1256 45.9218 14.3109 45.8235 14.487C45.7252 14.663 45.5595 14.8158 45.3264 14.9454C45.226 15.0012 45.1106 15.0513 44.9802 15.0958L44.0352 13.4285L43.8684 13.5212C43.4991 13.7265 43.2651 13.9336 43.1666 14.1425C43.0737 14.3529 43.1047 14.5948 43.2597 14.8683C43.3583 15.0423 43.4801 15.1614 43.6249 15.2256C43.7698 15.2899 43.9593 15.2873 44.1935 15.2178L44.2624 15.5017ZM45.6218 13.4572C45.489 13.2229 45.3097 13.0937 45.0839 13.0698C44.8617 13.0439 44.5659 13.1336 44.1966 13.3388L44.9635 14.6918C45.0085 14.6714 45.0471 14.6523 45.0794 14.6343C45.1173 14.6179 45.1506 14.6018 45.1793 14.5859C45.4733 14.4224 45.6479 14.2437 45.7029 14.0496C45.7616 13.8536 45.7346 13.6561 45.6218 13.4572Z" fill="black"/>
<path d="M46.3237 18.1925L46.2085 18.2363C45.7823 18.3983 45.4002 18.4236 45.0618 18.3123C44.7289 18.2032 44.4895 17.9606 44.3436 17.5842C44.1962 17.204 44.2095 16.8631 44.3833 16.5615C44.561 16.2584 44.8629 16.0259 45.289 15.864L45.4042 15.8202C45.8265 15.6596 46.2042 15.6339 46.5371 15.7429C46.8739 15.8504 47.116 16.0943 47.2634 16.4745C47.4107 16.8547 47.3956 17.1963 47.2179 17.4994C47.0441 17.801 46.746 18.032 46.3237 18.1925ZM46.2886 17.761C46.6879 17.6092 46.9454 17.4328 47.0613 17.2317C47.181 17.0292 47.1908 16.7987 47.0906 16.5401C46.9918 16.2854 46.8288 16.1206 46.6016 16.0456C46.3796 15.9729 46.069 16.0124 45.6697 16.1642L45.3241 16.2955C44.9287 16.4458 44.6692 16.6229 44.5456 16.8269C44.4274 17.0332 44.4176 17.2638 44.5163 17.5185C44.6165 17.777 44.7796 17.9419 45.0054 18.0131C45.235 18.0828 45.5476 18.0426 45.943 17.8923L46.2886 17.761Z" fill="black"/>
<path d="M47.3281 20.4932L47.535 20.459L47.8033 22.0496L47.5964 22.0838L47.3281 20.4932Z" fill="black"/>
</svg>
